<svg xmlns="http://www.w3.org/2000/svg" width="12.00cm" height="10.97cm" viewBox="-6.000 -20.483 12.000 10.967">
<rect x="-6.000" y="-20.483" width="12.000" height="10.967" fill="white" stroke="#ccc" stroke-width="0.02"/>
<polyline points="4.050,-19.483 3.719,-19.153 3.471,-18.822 3.430,-18.492 3.471,-18.161 3.471,-17.831 3.471,-17.500 3.388,-17.169 3.306,-16.839 3.058,-16.508 2.851,-16.178 2.686,-15.847 2.479,-15.517 2.314,-15.186 2.066,-14.855 1.777,-14.525 1.405,-14.194 0.950,-13.864 0.331,-13.533" stroke="#e41a1c" stroke-width="0.04" fill="none" opacity="0.8"/>
<circle cx="4.050" cy="-19.483" r="0.08" fill="#e41a1c"/>
<polyline points="1.405,-10.971 2.190,-11.302 2.727,-11.632 3.140,-11.963 3.512,-12.293 3.843,-12.624 4.091,-12.955 4.339,-13.285 4.545,-13.616 4.711,-13.946 4.876,-14.277 4.959,-14.607 5.000,-14.938 5.000,-15.269 5.000,-15.599 4.917,-15.930 4.793,-16.260 4.587,-16.591 4.339,-16.715 4.380,-16.921 4.298,-17.252 4.256,-17.583 4.256,-17.913 4.339,-18.244 4.463,-18.574 4.545,-18.905 4.587,-19.236 4.298,-19.401 3.967,-18.905 3.636,-18.781 3.760,-18.740 4.091,-18.822 4.256,-19.153" stroke="#377eb8" stroke-width="0.04" fill="none" opacity="0.8"/>
<circle cx="1.405" cy="-10.971" r="0.08" fill="#377eb8"/>
<polyline points="3.884,-18.492 3.554,-18.492" stroke="#4daf4a" stroke-width="0.04" fill="none" opacity="0.8"/>
<circle cx="3.884" cy="-18.492" r="0.08" fill="#4daf4a"/>
<polyline points="3.471,-18.905 3.802,-19.194 4.132,-19.483 4.463,-19.483 4.174,-19.236 3.843,-18.905 3.884,-18.450 3.967,-18.120 3.926,-17.789" stroke="#984ea3" stroke-width="0.04" fill="none" opacity="0.8"/>
<circle cx="3.471" cy="-18.905" r="0.08" fill="#984ea3"/>
<polyline points="4.339,-17.087 4.669,-16.508" stroke="#ff7f00" stroke-width="0.04" fill="none" opacity="0.8"/>
<circle cx="4.339" cy="-17.087" r="0.08" fill="#ff7f00"/>
<polyline points="4.380,-16.674 4.050,-16.880" stroke="#a65628" stroke-width="0.04" fill="none" opacity="0.8"/>
<circle cx="4.380" cy="-16.674" r="0.08" fill="#a65628"/>
<polyline points="3.264,-16.798 2.934,-16.343 2.603,-15.723 2.273,-15.145 1.942,-14.690 1.612,-14.360 1.281,-14.070 0.950,-13.864 0.620,-13.657 0.289,-13.492 -0.041,-13.409 -0.372,-13.326 -0.702,-13.285 -1.033,-13.244 -1.364,-13.244 -1.694,-13.244 -2.025,-13.326 -2.355,-13.409 -2.686,-13.492 -3.017,-13.616 -3.347,-13.698 -3.678,-13.781 -4.008,-13.864 -4.339,-13.988 -4.669,-14.029 -5.000,-13.781 -4.711,-14.029 -4.669,-13.864 -4.959,-13.533 -4.669,-13.864" stroke="#e41a1c" stroke-width="0.04" fill="none" opacity="0.8"/>
<circle cx="3.264" cy="-16.798" r="0.08" fill="#e41a1c"/>
<polyline points="-4.463,-13.988 -4.256,-13.574 -4.215,-13.244 -4.339,-13.161 -4.256,-13.574" stroke="#377eb8" stroke-width="0.04" fill="none" opacity="0.8"/>
<circle cx="-4.463" cy="-13.988" r="0.08" fill="#377eb8"/>
<polyline points="-4.917,-12.748 -4.835,-12.665 -5.000,-12.665 -4.876,-12.335 -4.669,-12.004 -4.380,-11.674 -3.967,-11.343 -3.388,-11.012" stroke="#4daf4a" stroke-width="0.04" fill="none" opacity="0.8"/>
<circle cx="-4.917" cy="-12.748" r="0.08" fill="#4daf4a"/>
<polyline points="-4.876,-12.624 -4.876,-12.417 -4.545,-11.880 -4.215,-11.550 -3.884,-11.302 -3.554,-11.136 -3.223,-10.971 -2.893,-10.847 -2.562,-10.764 -2.231,-10.682 -1.901,-10.599 -1.570,-10.558 -1.240,-10.558 -0.909,-10.517 -0.579,-10.558 -0.248,-10.558 0.083,-10.599 0.413,-10.682 0.744,-10.764 1.074,-10.847 1.405,-10.971 1.736,-11.095 2.066,-11.219 2.397,-11.426 2.727,-11.632 3.058,-11.880 3.388,-12.169 3.719,-12.500 4.050,-12.872 4.380,-13.326 4.711,-13.946" stroke="#984ea3" stroke-width="0.04" fill="none" opacity="0.8"/>
<circle cx="-4.876" cy="-12.624" r="0.08" fill="#984ea3"/>
<polyline points="3.182,-15.021 3.099,-14.897 3.223,-15.227 3.223,-15.434 3.058,-15.103 2.893,-14.773 2.934,-14.897 3.264,-15.434" stroke="#ff7f00" stroke-width="0.04" fill="none" opacity="0.8"/>
<circle cx="3.182" cy="-15.021" r="0.08" fill="#ff7f00"/>
</svg>