<svg xmlns="http://www.w3.org/2000/svg" version="1.1" xmlns:xlink="http://www.w3.org/1999/xlink" width="256" height="143">
<polyline points="47.0,0.0,48.0,4.0,50.0,8.0,52.0,12.0,51.5,15.0,53.5,19.0,55.5,23.0,57.5,27.0,59.5,31.0,62.0,35.0,64.0,39.0,65.0,43.0,67.0,47.0,69.0,51.0,71.5,55.0,73.5,59.0,75.5,63.0,77.5,67.0,79.5,71.0,81.5,74.0,77.5,66.0,73.5,58.0,69.5,51.0,65.5,44.0" stroke="black" stroke-width="1" fill="none" />
<polyline points="63.5,37.5,59.5,30.0,55.5,22.5,51.5,15.0,54.5,12.0,55.0,8.0,54.5,4.0,53.0,0.0,51.5,0.0,53.0,4.0,51.5,7.5,47.5,2.5,48.5,0.0,49.5,4.0,51.5,8.0,49.0,5.5,53.0,13.0,47.5,14.0,43.5,9.0,39.5,2.5,39.5,2.5,41.5,6.5,44.0,10.5,47.5,14.5,49.5,18.5" stroke="black" stroke-width="1" fill="none" />
<polyline points="41.5,10.0,38.5,6.0,37.0,2.0,39.0,0.0,35.5,0.5" stroke="black" stroke-width="1" fill="none" />
<polyline points="33.0,35.5,30.5,39.5,31.5,35.5,30.5,39.0,34.5,40.0" stroke="black" stroke-width="1" fill="none" />
<polyline points="46.0,44.5,50.0,44.5,50.5,46.5,46.5,46.0" stroke="black" stroke-width="1" fill="none" />
<polyline points="44.5,58.0,48.5,58.0,55.0,58.0,57.5,62.0,54.0,64.0,53.5,68.0,52.5,72.5,52.0,76.5,51.5,80.5,50.0,84.5,49.5,88.5,49.0,92.5,48.5,96.5,48.5,100.5,48.0,104.5,48.0,108.5,47.0,112.5,47.0,116.5,46.5,120.5,46.0,124.5,45.5,128.5,44.5,132.5,43.5,136.5,43.5,140.5,42.5,141.5,45.0,135.5,49.0,133.5,53.0,130.0,57.0,126.0,61.0,122.0,65.0,120.5,68.5,118.5,72.5,114.5,76.5,113.5,80.5,113.5,84.5,111.5,88.5,112.5,92.5,111.0,96.5,107.5,100.5,105.0,104.5,103.5,108.5,102.5,112.5,100.0,116.5,96.0,120.0,100.0,124.5,104.0,131.5,108.0,133.5,105.0,129.5,105.5,125.5,102.0,121.5,98.0,121.5,98.0,125.0,102.0" stroke="black" stroke-width="1" fill="none" />
<polyline points="132.0,95.5,136.0,96.5,140.0,95.0,138.0,96.5,142.0,97.5" stroke="black" stroke-width="1" fill="none" />
<polyline points="141.5,88.5,137.5,89.0,133.5,89.5,129.5,89.0,125.5,90.5,121.5,89.5,129.5,85.5,129.5,89.0,127.5,88.5,131.5,87.5,135.5,88.0,139.5,86.0,145.0,85.0,138.0,83.5,136.5,79.5,137.5,77.0,142.0,73.0,140.0,75.0,136.0,76.5,132.0,77.0,128.0,79.0,124.0,80.5,120.0,85.0,124.5,84.0,127.0,80.0,126.0,79.5,121.0,83.5,119.5,87.5,120.0,90.0,124.0,88.0,128.0,86.0,132.0,85.0,136.0,85.0,140.0,85.0,147.0,87.5,146.0,87.5,141.0,82.5,141.5,78.5,142.5,75.0,146.5,78.0,148.5,77.0,152.5,81.0,153.0,82.0,149.5,78.0,145.5,77.5,143.5,73.5" stroke="black" stroke-width="1" fill="none" />
<polyline points="134.0,75.0,130.0,73.5,129.5,74.5" stroke="black" stroke-width="1" fill="none" />
<polyline points="127.5,59.0,121.5,59.5,125.5,57.0,123.5,59.0,119.5,57.5,115.5,59.0,114.5,57.5,118.5,56.0,122.5,55.5,126.5,54.5,129.0,53.0,125.0,53.0,121.0,53.5,117.0,53.0,113.0,52.5,115.0,49.0,111.5,53.0,112.5,51.0,116.5,49.0,120.5,49.5,124.5,49.0,128.5,49.5" stroke="black" stroke-width="1" fill="none" />
<polyline points="143.0,48.5,138.0,52.5,141.5,49.5,145.5,48.5,149.5,48.0,153.5,48.0,157.5,48.5,156.5,48.0,159.5,52.0" stroke="black" stroke-width="1" fill="none" />
<polyline points="164.5,55.5,166.5,51.5,169.0,56.0,165.0,56.5,170.0,56.5,169.5,60.5,169.0,64.5,167.0,68.5,164.0,72.5,164.0,76.5,161.5,80.5,160.5,84.5,160.5,88.5,157.5,92.5,155.0,96.5,152.5,100.5,149.0,104.5" stroke="black" stroke-width="1" fill="none" />
<polyline points="158.5,96.5,159.0,92.5,159.5,95.0,163.5,96.5,167.5,99.0,171.5,100.0,175.5,100.5,179.5,102.5,183.5,104.5,187.5,105.5,191.5,106.0,195.5,106.5,199.5,105.5,203.5,107.0,207.5,109.0,211.5,111.5,215.5,115.0,219.5,116.5,223.5,120.0,227.5,123.0,231.5,122.0,235.5,121.5,233.5,119.0,229.0,115.0,228.0,111.0,228.0,107.0,228.0,103.0,230.5,99.0,228.0,103.0,232.0,99.0,236.0,98.0,234.5,102.0,236.5,101.5" stroke="black" stroke-width="1" fill="none" />
<polyline points="234.0,93.0,232.5,92.0,223.5,96.0,224.0,100.0,225.0,104.0,226.0,108.0,226.5,112.0,229.0,114.5,233.0,118.0,233.5,116.5,232.0,115.5,231.0,111.5,232.0,110.0,231.0,110.0,235.0,112.0,235.5,115.0" stroke="black" stroke-width="1" fill="none" />
<polyline points="239.5,127.0,243.5,127.0,245.5,124.5,245.0,120.5,244.0,116.5,243.5,112.5,242.5,108.5,241.5,104.5,239.0,100.0,238.0,96.0,237.0,92.0,237.5,90.5,233.5,92.0,229.5,93.0,225.5,94.5,231.0,94.0,231.0,94.0,227.0,95.5" stroke="black" stroke-width="1" fill="none" />
<polyline points="215.5,98.0,216.0,97.0,218.0,101.0,219.0,105.0,220.5,109.0,216.5,113.0,219.5,117.0,224.0,121.0,227.5,125.0,229.5,126.5" stroke="black" stroke-width="1" fill="none" />
<polyline points="222.0,108.5,218.0,112.0,213.5,113.5,207.5,109.5,201.0,105.5" stroke="black" stroke-width="1" fill="none" />
<polyline points="195.0,103.0,194.5,102.0,190.5,103.0,184.5,103.5,180.5,101.5,176.5,99.5,172.5,99.0,168.5,98.0,164.5,95.5,160.5,94.0,155.0,96.5,151.0,102.5,147.0,106.0,143.0,107.5,139.0,108.5,135.0,108.5,131.0,107.5,127.0,105.5,123.0,102.5,119.0,98.5,113.5,91.0,109.5,82.5,108.0,79.0,107.0,75.0,106.0,71.0,105.0,67.0,107.0,61.5,105.5,61.5,106.5,57.5,106.0,53.5,106.0,49.5,107.0,45.5,107.0,41.5,110.0,37.5,113.0,35.0,117.5,31.0,115.5,28.5,119.5,28.5,123.5,29.0" stroke="black" stroke-width="1" fill="none" />
<polyline points="141.0,28.0,137.0,27.0,134.5,31.5,130.5,30.5,127.0,30.0,125.5,32.0,121.5,32.0,117.5,31.0,113.5,34.0,108.0,37.5,104.0,37.5" stroke="black" stroke-width="1" fill="none" />
<polyline points="104.5,59.0,100.5,59.0,96.0,60.5,92.0,60.5,88.0,60.0,84.0,60.0,84.0,59.0,88.0,59.0,92.0,59.0,96.0,59.0,101.0,58.5,100.5,62.5,102.0,66.5,104.0,70.5,105.5,74.5,106.0,78.5,109.5,82.5,111.0,86.5,113.0,90.5,114.5,94.5,114.5,98.5,108.5,102.5,105.0,108.0,108.0,112.0,109.5,116.0,110.5,120.0,112.0,124.0,115.5,124.5,116.0,128.0,122.5,131.5,121.5,131.0,116.5,127.0,114.5,123.0,114.0,122.0,114.0,126.0" stroke="black" stroke-width="1" fill="none" />
<polyline points="105.5,126.5,104.5,122.5,104.0,118.5,103.0,114.5,102.5,110.5,101.0,106.5,101.0,106.5,101.0,104.5,96.0,108.5" stroke="black" stroke-width="1" fill="none" />
<polyline points="96.5,114.5,99.0,110.0,96.5,114.5,97.5,118.5,98.5,122.5,98.5,126.5,95.5,130.5,95.0,134.5,95.0,138.5,95.0,142.5" stroke="black" stroke-width="1" fill="none" />
<polyline points="87.5,139.0,87.0,135.0,87.5,131.0" stroke="black" stroke-width="1" fill="none" />
<polyline points="83.5,124.0,81.0,120.0,78.0,116.0,74.5,117.0,78.5,116.5,82.5,122.5" stroke="black" stroke-width="1" fill="none" />
<polyline points="75.5,121.0,75.5,125.0,75.0,129.0,73.5,133.0,74.0,137.0,73.5,141.0,70.5,142.5,71.5,138.5,72.0,134.5,72.5,130.5,72.5,126.5,73.0,122.5,73.5,118.5,71.0,117.0,72.0,113.0,72.5,109.0,73.0,105.0,73.0,101.0,73.5,97.0,74.0,93.0,70.5,95.0,69.5,99.0,69.0,103.0,68.5,107.0,68.5,111.0,68.0,115.0,67.0,119.0,63.5,122.5,63.5,126.5,65.0,130.5,63.5,136.0,64.0,140.0,62.0,139.0,59.0,130.0,60.5,130.5,61.0,129.0,55.5,126.0,56.0,122.0,57.0,118.0,57.5,114.0,58.5,110.0,59.0,106.0,59.5,102.0,59.5,98.0,60.0,94.0,57.5,92.5,57.5,96.5,56.5,100.5,56.0,104.5,55.5,108.5,55.0,112.5,54.5,116.5,54.0,120.5,53.5,124.5,54.5,128.5,50.0,132.5,50.0,135.0,53.5,139.0,56.5,143.0,54.0,139.5,50.0,135.0,52.0,133.5,55.0,137.5,56.0,138.5,52.0,133.5,56.5,131.0,59.0,135.0,59.0,139.0,62.5,143.0,61.5,142.0,61.0,138.0,60.5,135.0,59.0,131.0,56.0,127.5,59.5,123.5,60.0,119.5,60.0,115.5,61.0,111.5,61.5,107.5,62.0,103.5,62.5,99.5,63.5,95.5" stroke="black" stroke-width="1" fill="none" />
<polyline points="53.0,93.5,53.0,97.5,52.5,101.5,52.0,105.5,51.0,109.5,50.5,113.5" stroke="black" stroke-width="1" fill="none" />
<polyline points="36.0,115.5,35.0,111.0,31.0,111.5,29.5,107.5,29.0,108.0,33.0,109.5,33.5,115.0,29.5,113.5,25.5,111.5,21.5,112.0,18.5,108.0,19.0,104.0,17.0,104.5,17.0,105.5,17.0,109.5,13.5,116.0,19.5,117.5,23.5,119.0,27.5,119.0,31.5,123.0,34.5,128.0,36.0,126.0,35.0,122.0,35.5,118.0,36.0,112.0,33.0,113.5,34.0,108.5,34.5,104.5,31.5,100.5,31.5,96.5,23.5,95.5,20.5,91.5,19.0,91.0,18.0,95.0,18.5,92.5,22.5,92.0,26.5,94.0,30.5,96.0" stroke="black" stroke-width="1" fill="none" />
<polyline points="33.5,103.0,29.5,101.0,25.5,99.0,22.0,97.5,18.0,94.5,15.5,97.5,15.5,94.0,16.5,90.0,17.5,86.0,16.5,88.0,20.5,84.5,24.5,84.5,21.0,84.5,25.0,86.0,29.0,88.5" stroke="black" stroke-width="1" fill="none" />
<polyline points="27.0,80.0,31.0,79.5,31.0,85.5,33.0,89.5,37.5,95.5,32.5,100.0,34.5,103.0,30.0,104.5,26.0,106.5,26.0,108.0,28.0,106.5,25.5,102.0,21.5,101.0" stroke="black" stroke-width="1" fill="none" />
<polyline points="15.0,103.5,14.0,107.5,11.0,105.5,7.0,105.5,3.0,104.0,3.0,102.0,0.5,96.0,1.0,92.0,2.0,88.0,2.5,84.0,3.0,80.0,4.0,76.0,4.5,72.0,5.0,68.0,6.0,64.0,6.5,60.0" stroke="black" stroke-width="1" fill="none" />
<polyline points="24.5,69.0,24.5,69.5,24.5,73.5,27.5,74.0,28.5,77.0,31.0,77.0,35.0,79.0,34.0,80.0,33.0,78.0,29.0,77.5,25.0,78.0" stroke="black" stroke-width="1" fill="none" />
<polyline points="21.0,83.0,25.0,86.5,32.0,90.5,33.5,89.5,35.0,91.0,40.0,93.5" stroke="black" stroke-width="1" fill="none" />
<polyline points="42.0,77.5,39.5,73.5,40.5,72.5,40.0,73.5" stroke="black" stroke-width="1" fill="none" />
<polyline points="46.5,63.0,46.0,67.0,45.5,71.0,45.0,75.0,44.0,79.0,43.5,83.0,44.0,87.0,42.5,91.0,41.5,94.5,41.0,98.5,40.5,102.5,40.0,106.5,39.5,110.5,39.0,114.5,38.5,117.5,38.0,121.5,37.5,125.5,36.5,131.5,36.5,135.5,40.5,127.5" stroke="black" stroke-width="1" fill="none" />
<polyline points="33.0,126.0,29.0,126.0,25.0,124.5,21.0,122.0,21.5,119.5,21.5,123.5,21.0,124.0,23.5,126.0,28.0,129.0,32.0,129.5,33.5,133.5,29.5,133.5,25.5,133.0,21.5,135.0,17.5,138.0,9.0,139.0,10.0,141.5,12.0,141.0,13.0,137.0,13.5,133.0,13.0,125.5,13.0,121.5,13.0,120.5,15.0,120.5,14.5,124.5,13.5,129.0,17.5,127.5,21.5,128.5,27.0,130.5,22.5,130.0,18.5,130.0,14.5,129.5,13.5,131.0,17.5,131.0,21.5,131.5,24.0,135.5,28.0,136.0,32.0,137.5,36.0,138.0,40.0,138.5,40.5,136.5,36.5,137.0,34.5,130.5,33.0,129.0,31.5,123.5,29.0,119.5" stroke="black" stroke-width="1" fill="none" />
<polyline points="30.5,135.0,32.5,136.0,34.5,140.0,33.5,141.0,30.5,137.0,35.5,138.0,37.0,142.0,38.5,141.0,36.0,137.0,38.5,134.0,40.0,130.0,41.5,126.0,41.5,122.0,42.0,118.0,42.5,114.0,43.0,110.0,44.0,106.0,44.5,102.0,45.0,98.0,45.0,94.0,45.5,90.0,46.0,86.0,47.0,82.0,47.5,78.0,48.0,74.0,48.5,70.0,49.0,66.0,49.0,62.0,48.0,60.5,44.0,60.5,44.5,61.5,48.5,61.5,55.5,61.5,56.5,65.5,56.0,69.5,55.5,73.5,55.5,77.5,55.0,81.5,54.0,85.5,58.5,85.5,59.0,81.5,59.5,77.5,60.0,73.5,59.0,72.0" stroke="black" stroke-width="1" fill="none" />
<polyline points="58.5,62.0,58.0,59.5,55.0,60.5,49.0,59.0,45.0,59.0" stroke="black" stroke-width="1" fill="none" />
<polyline points="55.0,58.0,59.0,58.0" stroke="black" stroke-width="1" fill="none" />
<polyline points="73.5,74.5,75.5,78.5,77.5,77.5,73.5,74.5,73.5,75.5,77.5,80.5,78.5,79.5,75.5,75.5" stroke="black" stroke-width="1" fill="none" />
<polyline points="83.5,63.0,87.5,63.0,91.5,63.0,95.5,63.0,99.5,63.0,103.5,64.0,107.0,66.0,107.0,70.0" stroke="black" stroke-width="1" fill="none" />
<polyline points="115.5,99.5,115.5,103.5,116.0,107.5,117.0,111.5,119.5,115.5,125.0,119.5" stroke="black" stroke-width="1" fill="none" />
<polyline points="118.5,116.5,116.0,112.5,115.0,108.5,114.0,104.5,114.0,100.5" stroke="black" stroke-width="1" fill="none" />
<polyline points="117.0,111.0,121.0,116.5,125.0,119.0,129.0,120.5,133.0,121.0,137.0,121.0" stroke="black" stroke-width="1" fill="none" />
<polyline points="143.0,138.5,147.0,139.0,151.0,135.0,148.0,138.5" stroke="black" stroke-width="1" fill="none" />
<polyline points="163.5,124.0,163.0,125.0,165.5,121.0" stroke="black" stroke-width="1" fill="none" />
<polyline points="169.0,98.5,162.0,94.5" stroke="black" stroke-width="1" fill="none" />
<polyline points="160.0,87.5,164.0,87.5,168.0,86.0,167.0,87.0,168.5,83.0,166.0,79.0,166.0,75.0,167.0,71.0,166.5,70.5,163.5,73.0,167.5,66.5,171.0,62.0,175.0,67.0" stroke="black" stroke-width="1" fill="none" />
<polyline points="175.5,73.0,179.5,78.5,186.5,76.5" stroke="black" stroke-width="1" fill="none" />
<polyline points="186.5,68.0,182.5,67.0,181.5,62.5,185.5,59.5,189.5,55.5,193.5,51.5,197.5,47.5,201.5,43.5,197.5,43.0,192.5,47.0,188.0,51.0,184.0,55.0,183.0,59.0,181.5,60.0,182.0,64.0,182.5,68.0,180.5,72.0,182.5,76.0,182.0,80.0,180.5,84.0,184.5,88.0,186.0,92.0,186.5,96.0,187.0,100.0,187.0,104.0,181.5,103.5,175.5,99.5" stroke="black" stroke-width="1" fill="none" />
<polyline points="177.5,88.5,173.5,90.0,171.5,89.5,170.5,85.5,170.5,81.5,168.5,77.5,170.0,73.5,169.0,75.5,166.5,79.5,160.5,82.0" stroke="black" stroke-width="1" fill="none" />
<polyline points="178.0,88.0,178.0,84.0,179.5,80.0,177.0,76.0,175.0,72.0,175.0,68.0,172.0,64.0,172.0,61.0,170.5,57.0" stroke="black" stroke-width="1" fill="none" />
<polyline points="183.0,56.0,187.0,52.5,191.0,48.5,195.0,45.0,199.0,41.5,203.0,41.0,201.0,44.0,197.0,48.0,193.0,52.0,188.5,56.0,185.0,60.0,184.5,67.0,189.5,71.0,189.0,75.0,188.0,81.5,189.0,85.5,189.0,85.5,185.0,88.0,181.0,85.5" stroke="black" stroke-width="1" fill="none" />
<polyline points="203.5,96.5,207.5,96.0,211.5,95.5,215.5,94.0,206.5,94.0,203.5,95.5,207.5,94.0,211.5,92.5,215.5,91.0,214.5,94.0,207.5,98.0,205.5,99.5" stroke="black" stroke-width="1" fill="none" />
<polyline points="238.5,91.0,239.5,95.0,240.5,99.0,239.5,103.0,240.5,107.0,241.5,111.0,242.0,115.0,243.0,119.0,244.0,123.0,243.5,127.0,244.5,133.5,245.5,137.5,247.0,141.5,249.5,142.0,253.5,142.0" stroke="black" stroke-width="1" fill="none" />
<polyline points="254.5,135.0,254.5,131.0,253.5,127.0,253.0,123.0,252.0,119.0,251.5,115.0,250.5,111.0,250.0,107.0,249.0,103.0,248.0,99.0,247.5,95.0,246.5,91.0,246.0,87.0,245.0,83.0,244.0,79.0,243.5,75.0,243.0,71.0,245.5,67.0,241.0,63.5,240.0,59.5,239.0,55.5,238.5,51.5,237.5,47.5,239.0,43.5,238.0,39.5,237.0,35.5,236.0,31.5,235.0,28.5,234.5,24.5,233.0,20.5,229.0,20.5,227.0,18.5,226.0,19.5,230.0,15.5,228.5,14.5,224.0,18.5,224.5,18.0,228.5,14.5,234.0,15.5,229.0,19.5,232.5,17.0,236.5,18.0,236.5,19.5,235.5,15.5,239.5,15.0,239.0,19.0,237.0,23.0,239.5,26.5" stroke="black" stroke-width="1" fill="none" />
<polyline points="240.5,33.0,241.5,37.0,243.0,41.0,243.5,45.0,244.5,49.0,245.5,53.0,246.0,57.0,247.0,61.0,248.0,65.0,249.0,69.0,249.0,74.0,251.0,78.0,252.0,82.0,252.5,86.0,253.5,90.0,254.5,94.0,255.0,96.5,255.0,89.5,254.5,85.5,253.5,81.5,252.5,77.5,251.5,73.5,250.5,69.5,250.0,65.5,249.0,61.5,248.0,57.5,247.5,53.5,246.5,49.5,245.5,45.5,244.5,41.5,244.0,37.5,243.0,33.5,242.0,29.5,241.0,25.5,238.5,22.5,234.5,24.0,230.5,24.0,226.5,24.0,222.5,26.0,218.5,29.5,219.0,30.5,223.0,30.5,227.0,30.5,231.0,31.0,233.5,33.0,235.0,37.0,236.0,41.0,239.0,45.5,240.0,49.5,241.0,53.5,241.5,57.5,242.5,61.5,243.5,65.5,246.0,71.5,246.0,75.0,246.0,79.0,246.5,83.0,247.5,87.0,248.5,91.0,249.0,95.0,250.0,99.0,251.0,103.0,252.0,107.0,252.5,111.0,253.5,115.0,254.0,119.0,255.0,123.0" stroke="black" stroke-width="1" fill="none" />
<polyline points="234.0,33.0,230.0,33.0,226.0,33.0,222.0,33.0,218.0,32.5,214.0,34.5,210.0,38.0,206.0,42.0,202.0,45.5,198.0,49.5,194.0,53.5,190.0,57.5,186.0,61.5,182.0,63.5,189.0,58.5,193.0,54.5,197.0,50.5,201.0,46.5,205.0,42.5,209.5,38.5,213.5,34.5,220.5,28.0,225.5,24.0,220.5,25.0,216.5,29.0,214.5,27.5,218.5,24.0,218.5,24.0,214.0,28.0,210.0,34.5,212.5,32.5,213.5,30.5,217.5,28.0" stroke="black" stroke-width="1" fill="none" />
<polyline points="239.5,15.0,243.5,15.0,247.5,15.0,251.5,11.0,255.5,8.5,250.0,12.5" stroke="black" stroke-width="1" fill="none" />
<polyline points="149.0,32.0,145.0,33.5,141.0,32.0" stroke="black" stroke-width="1" fill="none" />
<polyline points="146.5,55.5,150.5,58.0,153.5,54.5,149.5,54.5,145.5,56.0" stroke="black" stroke-width="1" fill="none" />
<polyline points="103.5,105.0,104.0,109.0,106.0,109.0,109.0,115.5" stroke="black" stroke-width="1" fill="none" />
<polyline points="108.0,136.5,108.5,140.5" stroke="black" stroke-width="1" fill="none" />
<polyline points="66.0,142.5,66.0,138.5,64.0,135.0,63.0,131.0,61.5,127.0,63.0,127.5,59.0,126.0,60.0,127.0,63.5,131.5,66.5,129.5,65.5,125.5,64.5,121.5" stroke="black" stroke-width="1" fill="none" />
<polyline points="56.5,131.0,60.5,134.5" stroke="black" stroke-width="1" fill="none" />
<polyline points="30.0,143.0,26.0,142.5,22.0,143.0" stroke="black" stroke-width="1" fill="none" />
<polyline points="15.5,143.0,16.5,139.0,20.5,135.0,17.0,133.0,13.0,134.0" stroke="black" stroke-width="1" fill="none" />
<polyline points="8.5,138.5,7.0,142.5" stroke="black" stroke-width="1" fill="none" />
<polyline points="2.5,137.0,2.0,135.5,2.5,137.0,2.5,131.0,4.5,130.5,3.5,129.5,3.0,132.0" stroke="black" stroke-width="1" fill="none" />
<polyline points="14.0,114.0,13.0,114.5,12.0,107.5,13.5,104.0,15.0,102.5,11.0,100.5,7.0,99.0,3.0,99.5" stroke="black" stroke-width="1" fill="none" />
</svg>