<svg xmlns="http://www.w3.org/2000/svg" version="1.1" xmlns:xlink="http://www.w3.org/1999/xlink" width="254" height="168">
<polyline points="140.0,61.0,143.0,69.0,139.0,83.0,141.0,91.0,145.0,99.0,146.0,107.0,148.0,109.0,144.0,119.0,146.0,127.0,148.0,132.0,152.0,138.0,146.0,142.0,153.0,147.0,161.0,149.0,162.0,153.0,173.0,161.0" stroke="black" stroke-width="1" fill="none" />
<polyline points="177.0,155.0,177.0,147.0,174.0,136.0,180.0,128.0,180.0,131.0,186.0,139.0,188.0,147.0,194.0,139.0,193.0,142.0,190.0,136.0,183.0,136.0,175.0,137.0" stroke="black" stroke-width="1" fill="none" />
<polyline points="173.0,143.0,181.0,151.0,183.0,151.0,182.0,142.0,177.0,138.0,169.0,128.0,164.0,128.0,162.0,121.0,164.0,119.0,172.0,129.0,180.0,128.0,188.0,131.0,196.0,130.0,201.0,140.0" stroke="black" stroke-width="1" fill="none" />
<polyline points="203.0,134.0,195.0,135.0,204.0,131.0,201.0,123.0,209.0,115.0,213.0,107.0,213.0,99.0,216.0,97.0,221.0,96.0,228.0,88.0,230.0,83.0,237.0,78.0,232.0,70.0,229.0,69.0,228.0,77.0,219.0,77.0,222.0,74.0,227.0,73.0" stroke="black" stroke-width="1" fill="none" />
<polyline points="230.0,87.0,221.0,86.0,219.0,81.0,211.0,83.0,204.0,84.0" stroke="black" stroke-width="1" fill="none" />
<polyline points="210.0,76.0,202.0,73.0,201.0,72.0,209.0,71.0,204.0,73.0,211.0,73.0,209.0,84.0,205.0,88.0,201.0,96.0,201.0,104.0,207.0,104.0,213.0,103.0,218.0,102.0,218.0,92.0,225.0,99.0,233.0,91.0,231.0,93.0,223.0,96.0,228.0,104.0,221.0,112.0,226.0,120.0,219.0,127.0,207.0,135.0,201.0,143.0,192.0,148.0,185.0,150.0,190.0,145.0,198.0,146.0,203.0,141.0,211.0,132.0,219.0,127.0,227.0,123.0,235.0,121.0,243.0,121.0,251.0,123.0" stroke="black" stroke-width="1" fill="none" />
<polyline points="249.0,116.0,248.0,110.0,240.0,115.0,231.0,117.0,238.0,109.0,241.0,103.0,240.0,95.0,244.0,87.0,240.0,84.0,248.0,82.0,251.0,77.0,251.0,73.0,243.0,75.0,240.0,79.0,251.0,81.0,249.0,89.0,251.0,97.0,249.0,107.0,251.0,111.0,244.0,126.0,244.0,126.0" stroke="black" stroke-width="1" fill="none" />
<polyline points="240.0,136.0,242.0,144.0,246.0,149.0,250.0,157.0,252.0,157.0" stroke="black" stroke-width="1" fill="none" />
<polyline points="248.0,146.0,240.0,136.0,241.0,140.0,246.0,141.0,245.0,147.0" stroke="black" stroke-width="1" fill="none" />
<polyline points="249.0,137.0,251.0,144.0,250.0,136.0" stroke="black" stroke-width="1" fill="none" />
<polyline points="252.0,107.0,244.0,107.0,236.0,106.0,230.0,113.0,223.0,110.0,231.0,112.0,232.0,105.0,230.0,102.0,237.0,95.0,236.0,87.0" stroke="black" stroke-width="1" fill="none" />
<polyline points="245.0,93.0,236.0,87.0,233.0,79.0,226.0,80.0,218.0,83.0,213.0,87.0,211.0,97.0,203.0,98.0,201.0,92.0,193.0,95.0,188.0,106.0,180.0,115.0,179.0,116.0,186.0,108.0,185.0,103.0,184.0,91.0,182.0,89.0,189.0,83.0,201.0,76.0,205.0,68.0" stroke="black" stroke-width="1" fill="none" />
<polyline points="217.0,86.0,213.0,94.0" stroke="black" stroke-width="1" fill="none" />
<polyline points="207.0,99.0,199.0,88.0,191.0,94.0" stroke="black" stroke-width="1" fill="none" />
<polyline points="192.0,107.0,196.0,111.0,193.0,112.0,193.0,120.0,200.0,128.0" stroke="black" stroke-width="1" fill="none" />
<polyline points="196.0,133.0,188.0,135.0,180.0,131.0" stroke="black" stroke-width="1" fill="none" />
<polyline points="194.0,124.0,202.0,126.0,210.0,129.0,208.0,130.0,214.0,122.0,219.0,114.0,215.0,109.0,218.0,105.0" stroke="black" stroke-width="1" fill="none" />
<polyline points="217.0,116.0,206.0,117.0,198.0,122.0,199.0,118.0,208.0,110.0,200.0,111.0,198.0,114.0" stroke="black" stroke-width="1" fill="none" />
<polyline points="174.0,110.0,171.0,115.0,170.0,118.0,177.0,106.0,178.0,98.0,170.0,96.0,174.0,93.0,178.0,85.0,176.0,84.0,169.0,80.0,168.0,73.0,160.0,66.0,159.0,65.0,151.0,55.0,143.0,51.0,140.0,54.0,133.0,58.0,126.0,56.0,123.0,59.0,115.0,59.0,115.0,66.0,113.0,71.0" stroke="black" stroke-width="1" fill="none" />
<polyline points="120.0,70.0,124.0,61.0,132.0,59.0,134.0,62.0,143.0,63.0,150.0,66.0,158.0,67.0,166.0,71.0,174.0,77.0" stroke="black" stroke-width="1" fill="none" />
<polyline points="172.0,84.0,170.0,80.0,164.0,77.0,155.0,70.0,147.0,61.0,139.0,57.0,131.0,53.0,123.0,54.0,115.0,55.0,117.0,52.0,113.0,53.0,110.0,61.0,112.0,64.0,113.0,71.0,120.0,73.0,114.0,81.0,123.0,80.0,120.0,88.0,117.0,96.0,127.0,102.0,133.0,110.0,132.0,118.0,130.0,126.0,130.0,137.0,127.0,145.0,126.0,153.0,134.0,153.0,138.0,159.0,143.0,146.0,145.0,150.0,153.0,150.0,164.0,153.0,171.0,158.0,179.0,165.0,176.0,168.0,170.0,168.0,157.0,156.0,156.0,153.0,148.0,155.0,139.0,164.0,132.0,167.0,130.0,165.0,127.0,162.0,130.0,154.0,134.0,147.0,139.0,139.0,140.0,131.0,135.0,125.0,133.0,122.0,130.0,111.0,125.0,103.0,121.0,95.0,129.0,86.0,131.0,83.0,133.0,76.0,137.0,71.0,128.0,71.0,120.0,60.0,129.0,57.0,122.0,48.0,125.0,47.0,120.0,46.0,126.0,45.0,124.0,50.0,116.0,50.0" stroke="black" stroke-width="1" fill="none" />
<polyline points="122.0,43.0,125.0,40.0,133.0,43.0,141.0,45.0" stroke="black" stroke-width="1" fill="none" />
<polyline points="133.0,47.0,125.0,43.0" stroke="black" stroke-width="1" fill="none" />
<polyline points="143.0,55.0,151.0,56.0,157.0,64.0,148.0,70.0,152.0,73.0,154.0,76.0,155.0,86.0,150.0,88.0,145.0,98.0,153.0,96.0,158.0,97.0,164.0,92.0,168.0,87.0,176.0,89.0,179.0,83.0,191.0,82.0,197.0,79.0,200.0,82.0,204.0,76.0,218.0,73.0,220.0,69.0,229.0,69.0,231.0,72.0,234.0,82.0,242.0,86.0,250.0,89.0,254.0,96.0" stroke="black" stroke-width="1" fill="none" />
<polyline points="242.0,98.0,235.0,98.0,229.0,104.0,228.0,100.0" stroke="black" stroke-width="1" fill="none" />
<polyline points="167.0,96.0,165.0,88.0,163.0,86.0,163.0,94.0,160.0,99.0,156.0,104.0,153.0,112.0,158.0,94.0" stroke="black" stroke-width="1" fill="none" />
<polyline points="149.0,104.0,141.0,101.0,139.0,96.0,142.0,104.0,140.0,112.0,138.0,120.0,143.0,124.0" stroke="black" stroke-width="1" fill="none" />
<polyline points="151.0,121.0,153.0,128.0,161.0,135.0,169.0,138.0,169.0,143.0,171.0,152.0,179.0,158.0,187.0,154.0" stroke="black" stroke-width="1" fill="none" />
<polyline points="181.0,158.0,178.0,150.0,169.0,144.0,168.0,132.0,162.0,122.0,149.0,118.0,153.0,108.0,151.0,103.0,154.0,95.0,158.0,87.0,167.0,83.0,166.0,75.0,158.0,67.0" stroke="black" stroke-width="1" fill="none" />
<polyline points="154.0,74.0,149.0,82.0,144.0,79.0,139.0,76.0,134.0,79.0,126.0,77.0" stroke="black" stroke-width="1" fill="none" />
<polyline points="128.0,68.0,129.0,70.0,137.0,76.0,146.0,74.0" stroke="black" stroke-width="1" fill="none" />
<polyline points="121.0,89.0,129.0,86.0,137.0,90.0,137.0,91.0,136.0,99.0,136.0,107.0,139.0,113.0" stroke="black" stroke-width="1" fill="none" />
<polyline points="122.0,112.0,121.0,107.0,113.0,109.0,115.0,106.0,120.0,102.0,122.0,112.0,122.0,121.0,120.0,129.0,119.0,137.0,118.0,145.0,120.0,145.0,121.0,137.0,118.0,127.0,110.0,125.0,104.0,132.0,100.0,135.0,95.0,143.0,84.0,148.0,74.0,143.0,66.0,143.0,65.0,136.0,60.0,142.0,56.0,132.0,46.0,127.0,39.0,124.0,36.0,116.0,37.0,108.0,25.0,100.0,17.0,92.0,11.0,93.0,3.0,93.0,3.0,93.0,6.0,101.0,9.0,102.0,9.0,112.0,3.0,118.0,2.0,126.0,13.0,125.0,13.0,133.0,16.0,141.0,20.0,141.0" stroke="black" stroke-width="1" fill="none" />
<polyline points="14.0,133.0,14.0,127.0,13.0,119.0,11.0,118.0,16.0,110.0,16.0,99.0,12.0,97.0,4.0,95.0,0.0,91.0,8.0,89.0,16.0,91.0,24.0,98.0,32.0,93.0,40.0,87.0,48.0,81.0,56.0,77.0,64.0,73.0,62.0,81.0,60.0,86.0,47.0,87.0" stroke="black" stroke-width="1" fill="none" />
<polyline points="37.0,93.0,45.0,93.0,53.0,90.0,61.0,86.0,69.0,88.0,77.0,84.0,81.0,80.0" stroke="black" stroke-width="1" fill="none" />
<polyline points="86.0,85.0,86.0,93.0,79.0,102.0,82.0,105.0,86.0,95.0,92.0,105.0,98.0,103.0" stroke="black" stroke-width="1" fill="none" />
<polyline points="93.0,96.0,95.0,104.0,99.0,112.0" stroke="black" stroke-width="1" fill="none" />
<polyline points="98.0,128.0,90.0,121.0,89.0,116.0,81.0,122.0,73.0,123.0,65.0,120.0,54.0,122.0,53.0,114.0,47.0,108.0,39.0,109.0" stroke="black" stroke-width="1" fill="none" />
<polyline points="36.0,103.0,44.0,106.0,52.0,112.0" stroke="black" stroke-width="1" fill="none" />
<polyline points="48.0,120.0,43.0,119.0,32.0,117.0,22.0,116.0,15.0,116.0,4.0,114.0,2.0,116.0" stroke="black" stroke-width="1" fill="none" />
<polyline points="9.0,111.0,17.0,105.0,25.0,102.0,33.0,114.0,48.0,120.0,65.0,125.0,67.0,127.0,77.0,129.0,70.0,137.0,77.0,140.0,73.0,148.0,77.0,152.0,73.0,160.0,75.0,164.0" stroke="black" stroke-width="1" fill="none" />
<polyline points="81.0,157.0,81.0,165.0,85.0,165.0" stroke="black" stroke-width="1" fill="none" />
<polyline points="91.0,167.0,93.0,159.0,87.0,151.0,87.0,147.0,85.0,139.0,93.0,130.0,90.0,122.0,85.0,121.0,85.0,121.0,93.0,128.0,91.0,140.0,99.0,142.0" stroke="black" stroke-width="1" fill="none" />
<polyline points="93.0,151.0,90.0,146.0,89.0,138.0,92.0,134.0,78.0,130.0,74.0,127.0,66.0,133.0,57.0,132.0,49.0,128.0,41.0,128.0,43.0,123.0,32.0,120.0,31.0,112.0,26.0,112.0,18.0,107.0,14.0,107.0,22.0,112.0,20.0,120.0,24.0,122.0,32.0,126.0,29.0,134.0,31.0,142.0,29.0,151.0,35.0,159.0,37.0,167.0,29.0,162.0,36.0,168.0" stroke="black" stroke-width="1" fill="none" />
<polyline points="21.0,166.0,13.0,168.0" stroke="black" stroke-width="1" fill="none" />
<polyline points="10.0,160.0,3.0,167.0,7.0,167.0,10.0,163.0,6.0,155.0,0.0,157.0" stroke="black" stroke-width="1" fill="none" />
<polyline points="28.0,147.0,36.0,154.0,44.0,153.0,49.0,153.0,57.0,154.0,65.0,155.0,74.0,152.0,82.0,154.0,90.0,154.0" stroke="black" stroke-width="1" fill="none" />
<polyline points="98.0,155.0,99.0,147.0,96.0,140.0,100.0,132.0,98.0,119.0,95.0,111.0,90.0,109.0,87.0,103.0,86.0,95.0" stroke="black" stroke-width="1" fill="none" />
<polyline points="92.0,95.0,101.0,92.0,101.0,100.0,104.0,113.0,103.0,121.0,110.0,131.0,109.0,139.0,109.0,147.0,101.0,157.0,103.0,164.0" stroke="black" stroke-width="1" fill="none" />
<polyline points="114.0,150.0,114.0,142.0,114.0,134.0,120.0,125.0,118.0,117.0,113.0,109.0,106.0,101.0,104.0,93.0" stroke="black" stroke-width="1" fill="none" />
<polyline points="108.0,87.0,108.0,89.0,113.0,97.0,113.0,105.0,118.0,113.0,123.0,110.0,126.0,120.0,125.0,125.0,128.0,133.0,125.0,141.0,121.0,150.0,122.0,158.0" stroke="black" stroke-width="1" fill="none" />
<polyline points="123.0,166.0,121.0,162.0,116.0,161.0,112.0,161.0,108.0,153.0,106.0,145.0,105.0,137.0,105.0,129.0,110.0,118.0,107.0,110.0,99.0,104.0,96.0,96.0,96.0,92.0,95.0,81.0,87.0,78.0,79.0,85.0,71.0,90.0,63.0,94.0,65.0,93.0,73.0,86.0,75.0,80.0,77.0,66.0,94.0,58.0,108.0,50.0,117.0,42.0,111.0,47.0,103.0,53.0,95.0,58.0,87.0,62.0,79.0,65.0,71.0,68.0,63.0,74.0,62.0,81.0,61.0,78.0,69.0,75.0,78.0,71.0" stroke="black" stroke-width="1" fill="none" />
<polyline points="88.0,77.0,83.0,81.0,80.0,92.0,69.0,94.0,77.0,91.0,91.0,85.0,96.0,86.0,104.0,92.0,107.0,101.0,115.0,104.0,119.0,100.0,127.0,101.0,135.0,112.0,139.0,123.0,147.0,119.0,151.0,118.0,159.0,119.0,160.0,113.0,165.0,99.0,167.0,102.0,161.0,110.0,165.0,113.0,162.0,121.0,166.0,129.0,159.0,133.0,160.0,141.0,157.0,152.0,151.0,161.0,148.0,167.0,156.0,166.0,161.0,166.0,158.0,158.0,159.0,148.0,156.0,138.0,152.0,133.0,152.0,131.0,150.0,125.0,145.0,136.0,135.0,136.0,127.0,127.0,126.0,119.0,118.0,117.0,107.0,117.0,102.0,107.0,100.0,113.0,92.0,111.0,83.0,105.0,84.0,107.0,75.0,108.0,70.0,100.0,71.0,93.0,84.0,85.0,90.0,80.0,93.0,75.0,95.0,74.0,101.0,66.0,96.0,69.0,94.0,75.0" stroke="black" stroke-width="1" fill="none" />
<polyline points="82.0,90.0,74.0,95.0,66.0,96.0,58.0,99.0,50.0,101.0,42.0,100.0,34.0,101.0,26.0,100.0" stroke="black" stroke-width="1" fill="none" />
<polyline points="25.0,110.0,27.0,118.0,29.0,132.0,33.0,125.0,41.0,125.0,50.0,131.0,54.0,141.0,62.0,146.0,70.0,151.0" stroke="black" stroke-width="1" fill="none" />
<polyline points="74.0,139.0,72.0,130.0,79.0,122.0" stroke="black" stroke-width="1" fill="none" />
<polyline points="79.0,107.0,71.0,105.0" stroke="black" stroke-width="1" fill="none" />
<polyline points="60.0,73.0,48.0,81.0,38.0,89.0,26.0,97.0,33.0,102.0,41.0,108.0,42.0,112.0,49.0,116.0,57.0,123.0,65.0,126.0,55.0,134.0,57.0,142.0,69.0,140.0,61.0,152.0,66.0,161.0,71.0,165.0,64.0,166.0,73.0,158.0,80.0,159.0,91.0,166.0,93.0,158.0,104.0,162.0,109.0,155.0,114.0,165.0,115.0,155.0,123.0,156.0,131.0,150.0,136.0,145.0,145.0,139.0" stroke="black" stroke-width="1" fill="none" />
<polyline points="141.0,145.0,138.0,153.0,141.0,158.0,137.0,161.0,140.0,162.0,145.0,163.0,148.0,162.0,147.0,154.0,143.0,146.0" stroke="black" stroke-width="1" fill="none" />
<polyline points="133.0,139.0,136.0,139.0,125.0,137.0" stroke="black" stroke-width="1" fill="none" />
<polyline points="111.0,148.0,112.0,140.0,112.0,132.0,110.0,127.0" stroke="black" stroke-width="1" fill="none" />
<polyline points="164.0,140.0,165.0,148.0,171.0,155.0,178.0,155.0" stroke="black" stroke-width="1" fill="none" />
<polyline points="60.0,164.0,58.0,160.0,56.0,158.0,47.0,161.0,39.0,160.0,38.0,150.0,36.0,142.0,32.0,134.0,34.0,137.0" stroke="black" stroke-width="1" fill="none" />
<polyline points="44.0,141.0,51.0,146.0,52.0,154.0,56.0,166.0" stroke="black" stroke-width="1" fill="none" />
<polyline points="50.0,161.0,57.0,157.0,57.0,149.0,54.0,141.0,52.0,133.0" stroke="black" stroke-width="1" fill="none" />
<polyline points="32.0,122.0,24.0,124.0,16.0,127.0,8.0,127.0,0.0,127.0" stroke="black" stroke-width="1" fill="none" />
</svg>