<svg xmlns="http://www.w3.org/2000/svg" width="12.00cm" height="7.04cm" viewBox="-6.000 -18.520 12.000 7.039">
<rect x="-6.000" y="-18.520" width="12.000" height="7.039" fill="white" stroke="#ccc" stroke-width="0.02"/>
<polyline points="0.512,-16.693 0.630,-16.378 0.472,-15.827 0.551,-15.512 0.709,-15.197 0.748,-14.882 0.827,-14.803 0.669,-14.409 0.748,-14.094 0.827,-13.898 0.984,-13.661 0.748,-13.504 1.024,-13.307 1.339,-13.228 1.378,-13.071 1.811,-12.756" stroke="#e41a1c" stroke-width="0.04" fill="none" opacity="0.8"/>
<circle cx="0.512" cy="-16.693" r="0.08" fill="#e41a1c"/>
<polyline points="1.969,-12.992 1.969,-13.307 1.850,-13.740 2.087,-14.055 2.087,-13.937 2.323,-13.622 2.402,-13.307 2.638,-13.622 2.598,-13.504 2.480,-13.740 2.205,-13.740 1.890,-13.701" stroke="#377eb8" stroke-width="0.04" fill="none" opacity="0.8"/>
<circle cx="1.969" cy="-12.992" r="0.08" fill="#377eb8"/>
<polyline points="1.811,-13.465 2.126,-13.150 2.205,-13.150 2.165,-13.504 1.969,-13.661 1.654,-14.055 1.457,-14.055 1.378,-14.331 1.457,-14.409 1.772,-14.016 2.087,-14.055 2.402,-13.937 2.717,-13.976 2.913,-13.583" stroke="#4daf4a" stroke-width="0.04" fill="none" opacity="0.8"/>
<circle cx="1.811" cy="-13.465" r="0.08" fill="#4daf4a"/>
<polyline points="2.992,-13.819 2.677,-13.780 3.031,-13.937 2.913,-14.252 3.228,-14.567 3.386,-14.882 3.386,-15.197 3.504,-15.276 3.701,-15.315 3.976,-15.630 4.055,-15.827 4.331,-16.024 4.134,-16.339 4.016,-16.378 3.976,-16.063 3.622,-16.063 3.740,-16.181 3.937,-16.220" stroke="#984ea3" stroke-width="0.04" fill="none" opacity="0.8"/>
<circle cx="2.992" cy="-13.819" r="0.08" fill="#984ea3"/>
<polyline points="4.055,-15.669 3.701,-15.709 3.622,-15.906 3.307,-15.827 3.031,-15.787" stroke="#ff7f00" stroke-width="0.04" fill="none" opacity="0.8"/>
<circle cx="4.055" cy="-15.669" r="0.08" fill="#ff7f00"/>
<polyline points="3.268,-16.102 2.953,-16.220 2.913,-16.260 3.228,-16.299 3.031,-16.220 3.307,-16.220 3.228,-15.787 3.071,-15.630 2.913,-15.315 2.913,-15.000 3.150,-15.000 3.386,-15.039 3.583,-15.079 3.583,-15.472 3.858,-15.197 4.173,-15.512 4.094,-15.433 3.780,-15.315 3.976,-15.000 3.701,-14.685 3.898,-14.370 3.622,-14.094 3.150,-13.780 2.913,-13.465 2.559,-13.268 2.283,-13.189 2.480,-13.386 2.795,-13.346 2.992,-13.543 3.307,-13.898 3.622,-14.094 3.937,-14.252 4.252,-14.331 4.567,-14.331 4.882,-14.252" stroke="#a65628" stroke-width="0.04" fill="none" opacity="0.8"/>
<circle cx="3.268" cy="-16.102" r="0.08" fill="#a65628"/>
<polyline points="4.803,-14.528 4.764,-14.764 4.449,-14.567 4.094,-14.488 4.370,-14.803 4.488,-15.039 4.449,-15.354 4.606,-15.669 4.449,-15.787 4.764,-15.866 4.882,-16.063 4.882,-16.220 4.567,-16.142 4.449,-15.984 4.882,-15.906 4.803,-15.591 4.882,-15.276 4.803,-14.882 4.882,-14.724 4.606,-14.134 4.606,-14.134" stroke="#e41a1c" stroke-width="0.04" fill="none" opacity="0.8"/>
<circle cx="4.803" cy="-14.528" r="0.08" fill="#e41a1c"/>
<polyline points="4.449,-13.740 4.528,-13.425 4.685,-13.228 4.843,-12.913 4.921,-12.913" stroke="#377eb8" stroke-width="0.04" fill="none" opacity="0.8"/>
<circle cx="4.449" cy="-13.740" r="0.08" fill="#377eb8"/>
<polyline points="4.764,-13.346 4.449,-13.740 4.488,-13.583 4.685,-13.543 4.646,-13.307" stroke="#4daf4a" stroke-width="0.04" fill="none" opacity="0.8"/>
<circle cx="4.764" cy="-13.346" r="0.08" fill="#4daf4a"/>
<polyline points="4.803,-13.701 4.882,-13.425 4.843,-13.740" stroke="#984ea3" stroke-width="0.04" fill="none" opacity="0.8"/>
<circle cx="4.803" cy="-13.701" r="0.08" fill="#984ea3"/>
<polyline points="4.921,-14.882 4.606,-14.882 4.291,-14.921 4.055,-14.646 3.780,-14.764 4.094,-14.685 4.134,-14.961 4.055,-15.079 4.331,-15.354 4.291,-15.669" stroke="#ff7f00" stroke-width="0.04" fill="none" opacity="0.8"/>
<circle cx="4.921" cy="-14.882" r="0.08" fill="#ff7f00"/>
<polyline points="4.646,-15.433 4.291,-15.669 4.173,-15.984 3.898,-15.945 3.583,-15.827 3.386,-15.669 3.307,-15.276 2.992,-15.236 2.913,-15.472 2.598,-15.354 2.402,-14.921 2.087,-14.567 2.047,-14.528 2.323,-14.843 2.283,-15.039 2.244,-15.512 2.165,-15.591 2.441,-15.827 2.913,-16.102 3.071,-16.417" stroke="#a65628" stroke-width="0.04" fill="none" opacity="0.8"/>
<circle cx="4.646" cy="-15.433" r="0.08" fill="#a65628"/>
<polyline points="3.543,-15.709 3.386,-15.394" stroke="#e41a1c" stroke-width="0.04" fill="none" opacity="0.8"/>
<circle cx="3.543" cy="-15.709" r="0.08" fill="#e41a1c"/>
<polyline points="3.150,-15.197 2.835,-15.630 2.520,-15.394" stroke="#377eb8" stroke-width="0.04" fill="none" opacity="0.8"/>
<circle cx="3.150" cy="-15.197" r="0.08" fill="#377eb8"/>
<polyline points="2.559,-14.882 2.717,-14.724 2.598,-14.685 2.598,-14.370 2.874,-14.055" stroke="#4daf4a" stroke-width="0.04" fill="none" opacity="0.8"/>
<circle cx="2.559" cy="-14.882" r="0.08" fill="#4daf4a"/>
<polyline points="2.717,-13.858 2.402,-13.780 2.087,-13.937" stroke="#984ea3" stroke-width="0.04" fill="none" opacity="0.8"/>
<circle cx="2.717" cy="-13.858" r="0.08" fill="#984ea3"/>
<polyline points="2.638,-14.213 2.953,-14.134 3.268,-14.016 3.189,-13.976 3.425,-14.291 3.622,-14.606 3.465,-14.803 3.583,-14.961" stroke="#ff7f00" stroke-width="0.04" fill="none" opacity="0.8"/>
<circle cx="2.638" cy="-14.213" r="0.08" fill="#ff7f00"/>
<polyline points="3.543,-14.528 3.110,-14.488 2.795,-14.291 2.835,-14.449 3.189,-14.764 2.874,-14.724 2.795,-14.606" stroke="#a65628" stroke-width="0.04" fill="none" opacity="0.8"/>
<circle cx="3.543" cy="-14.528" r="0.08" fill="#a65628"/>
<polyline points="1.850,-14.764 1.732,-14.567 1.693,-14.449 1.969,-14.921 2.008,-15.236 1.693,-15.315 1.850,-15.433 2.008,-15.748 1.929,-15.787 1.654,-15.945 1.614,-16.220 1.299,-16.496 1.260,-16.535 0.945,-16.929 0.630,-17.087 0.512,-16.969 0.236,-16.811 -0.039,-16.890 -0.157,-16.772 -0.472,-16.772 -0.472,-16.496 -0.551,-16.299" stroke="#e41a1c" stroke-width="0.04" fill="none" opacity="0.8"/>
<circle cx="1.850" cy="-14.764" r="0.08" fill="#e41a1c"/>
<polyline points="-0.276,-16.339 -0.118,-16.693 0.197,-16.772 0.276,-16.654 0.630,-16.614 0.906,-16.496 1.220,-16.457 1.535,-16.299 1.850,-16.063" stroke="#377eb8" stroke-width="0.04" fill="none" opacity="0.8"/>
<circle cx="-0.276" cy="-16.339" r="0.08" fill="#377eb8"/>
<polyline points="1.772,-15.787 1.693,-15.945 1.457,-16.063 1.102,-16.339 0.787,-16.693 0.472,-16.850 0.157,-17.008 -0.157,-16.969 -0.472,-16.929 -0.394,-17.047 -0.551,-17.008 -0.669,-16.693 -0.591,-16.575 -0.551,-16.299 -0.276,-16.220 -0.512,-15.906 -0.157,-15.945 -0.276,-15.630 -0.394,-15.315 0.000,-15.079 0.236,-14.764 0.197,-14.449 0.118,-14.134 0.118,-13.701 0.000,-13.386 -0.039,-13.071 0.276,-13.071 0.433,-12.835 0.630,-13.346 0.709,-13.189 1.024,-13.189 1.457,-13.071 1.732,-12.874 2.047,-12.598 1.929,-12.480 1.693,-12.480 1.181,-12.953 1.142,-13.071 0.827,-12.992 0.472,-12.638 0.197,-12.520 0.118,-12.598 0.000,-12.717 0.118,-13.031 0.276,-13.307 0.472,-13.622 0.512,-13.937 0.315,-14.173 0.236,-14.291 0.118,-14.724 -0.079,-15.039 -0.236,-15.354 0.079,-15.709 0.157,-15.827 0.236,-16.102 0.394,-16.299 0.039,-16.299 -0.276,-16.732 0.079,-16.850 -0.197,-17.205 -0.079,-17.244 -0.276,-17.283 -0.039,-17.323 -0.118,-17.126 -0.433,-17.126" stroke="#4daf4a" stroke-width="0.04" fill="none" opacity="0.8"/>
<circle cx="1.772" cy="-15.787" r="0.08" fill="#4daf4a"/>
<polyline points="-0.197,-17.402 -0.079,-17.520 0.236,-17.402 0.551,-17.323" stroke="#984ea3" stroke-width="0.04" fill="none" opacity="0.8"/>
<circle cx="-0.197" cy="-17.402" r="0.08" fill="#984ea3"/>
<polyline points="0.236,-17.244 -0.079,-17.402" stroke="#ff7f00" stroke-width="0.04" fill="none" opacity="0.8"/>
<circle cx="0.236" cy="-17.244" r="0.08" fill="#ff7f00"/>
<polyline points="0.630,-16.929 0.945,-16.890 1.181,-16.575 0.827,-16.339 0.984,-16.220 1.063,-16.102 1.102,-15.709 0.906,-15.630 0.709,-15.236 1.024,-15.315 1.220,-15.276 1.457,-15.472 1.614,-15.669 1.929,-15.591 2.047,-15.827 2.520,-15.866 2.756,-15.984 2.874,-15.866 3.031,-16.102 3.583,-16.220 3.661,-16.378 4.016,-16.378 4.094,-16.260 4.213,-15.866 4.528,-15.709 4.843,-15.591 5.000,-15.315" stroke="#a65628" stroke-width="0.04" fill="none" opacity="0.8"/>
<circle cx="0.630" cy="-16.929" r="0.08" fill="#a65628"/>
<polyline points="4.528,-15.236 4.252,-15.236 4.016,-15.000 3.976,-15.157" stroke="#e41a1c" stroke-width="0.04" fill="none" opacity="0.8"/>
<circle cx="4.528" cy="-15.236" r="0.08" fill="#e41a1c"/>
<polyline points="1.575,-15.315 1.496,-15.630 1.417,-15.709 1.417,-15.394 1.299,-15.197 1.142,-15.000 1.024,-14.685 1.220,-15.394" stroke="#377eb8" stroke-width="0.04" fill="none" opacity="0.8"/>
<circle cx="1.575" cy="-15.315" r="0.08" fill="#377eb8"/>
<polyline points="0.866,-15.000 0.551,-15.118 0.472,-15.315 0.591,-15.000 0.512,-14.685 0.433,-14.370 0.630,-14.213" stroke="#4daf4a" stroke-width="0.04" fill="none" opacity="0.8"/>
<circle cx="0.866" cy="-15.000" r="0.08" fill="#4daf4a"/>
<polyline points="0.945,-14.331 1.024,-14.055 1.339,-13.780 1.654,-13.661 1.654,-13.465 1.732,-13.110 2.047,-12.874 2.362,-13.031" stroke="#984ea3" stroke-width="0.04" fill="none" opacity="0.8"/>
<circle cx="0.945" cy="-14.331" r="0.08" fill="#984ea3"/>
<polyline points="2.126,-12.874 2.008,-13.189 1.654,-13.425 1.614,-13.898 1.378,-14.291 0.866,-14.449 1.024,-14.843 0.945,-15.039 1.063,-15.354 1.220,-15.669 1.575,-15.827 1.535,-16.142 1.220,-16.457" stroke="#ff7f00" stroke-width="0.04" fill="none" opacity="0.8"/>
<circle cx="2.126" cy="-12.874" r="0.08" fill="#ff7f00"/>
<polyline points="1.063,-16.181 0.866,-15.866 0.669,-15.984 0.472,-16.102 0.276,-15.984 -0.039,-16.063" stroke="#a65628" stroke-width="0.04" fill="none" opacity="0.8"/>
<circle cx="1.063" cy="-16.181" r="0.08" fill="#a65628"/>
<polyline points="0.039,-16.417 0.079,-16.339 0.394,-16.102 0.748,-16.181" stroke="#e41a1c" stroke-width="0.04" fill="none" opacity="0.8"/>
<circle cx="0.039" cy="-16.417" r="0.08" fill="#e41a1c"/>
<polyline points="-0.236,-15.591 0.079,-15.709 0.394,-15.551 0.394,-15.512 0.354,-15.197 0.354,-14.882 0.472,-14.646" stroke="#377eb8" stroke-width="0.04" fill="none" opacity="0.8"/>
<circle cx="-0.236" cy="-15.591" r="0.08" fill="#377eb8"/>
<polyline points="-0.197,-14.685 -0.236,-14.882 -0.551,-14.803 -0.472,-14.921 -0.276,-15.079 -0.197,-14.685 -0.197,-14.331 -0.276,-14.016 -0.315,-13.701 -0.354,-13.386 -0.276,-13.386 -0.236,-13.701 -0.354,-14.094 -0.669,-14.173 -0.906,-13.898 -1.063,-13.780 -1.260,-13.465 -1.693,-13.268 -2.087,-13.465 -2.402,-13.465 -2.441,-13.740 -2.638,-13.504 -2.795,-13.898 -3.189,-14.094 -3.465,-14.213 -3.583,-14.528 -3.543,-14.843 -4.016,-15.157 -4.331,-15.472 -4.567,-15.433 -4.882,-15.433 -4.882,-15.433 -4.764,-15.118 -4.646,-15.079 -4.646,-14.685 -4.882,-14.449 -4.921,-14.134 -4.488,-14.173 -4.488,-13.858 -4.370,-13.543 -4.213,-13.543" stroke="#4daf4a" stroke-width="0.04" fill="none" opacity="0.8"/>
<circle cx="-0.197" cy="-14.685" r="0.08" fill="#4daf4a"/>
<polyline points="-4.449,-13.858 -4.449,-14.094 -4.488,-14.409 -4.567,-14.449 -4.370,-14.764 -4.370,-15.197 -4.528,-15.276 -4.843,-15.354 -5.000,-15.512 -4.685,-15.591 -4.370,-15.512 -4.055,-15.236 -3.740,-15.433 -3.425,-15.669 -3.110,-15.906 -2.795,-16.063 -2.480,-16.220 -2.559,-15.906 -2.638,-15.709 -3.150,-15.669" stroke="#984ea3" stroke-width="0.04" fill="none" opacity="0.8"/>
<circle cx="-4.449" cy="-13.858" r="0.08" fill="#984ea3"/>
<polyline points="-3.543,-15.433 -3.228,-15.433 -2.913,-15.551 -2.598,-15.709 -2.283,-15.630 -1.969,-15.787 -1.811,-15.945" stroke="#ff7f00" stroke-width="0.04" fill="none" opacity="0.8"/>
<circle cx="-3.543" cy="-15.433" r="0.08" fill="#ff7f00"/>
<polyline points="-1.614,-15.748 -1.614,-15.433 -1.890,-15.079 -1.772,-14.961 -1.614,-15.354 -1.378,-14.961 -1.142,-15.039" stroke="#a65628" stroke-width="0.04" fill="none" opacity="0.8"/>
<circle cx="-1.614" cy="-15.748" r="0.08" fill="#a65628"/>
<polyline points="-1.339,-15.315 -1.260,-15.000 -1.102,-14.685" stroke="#e41a1c" stroke-width="0.04" fill="none" opacity="0.8"/>
<circle cx="-1.339" cy="-15.315" r="0.08" fill="#e41a1c"/>
<polyline points="-1.142,-14.055 -1.457,-14.331 -1.496,-14.528 -1.811,-14.291 -2.126,-14.252 -2.441,-14.370 -2.874,-14.291 -2.913,-14.606 -3.150,-14.843 -3.465,-14.803" stroke="#377eb8" stroke-width="0.04" fill="none" opacity="0.8"/>
<circle cx="-1.142" cy="-14.055" r="0.08" fill="#377eb8"/>
<polyline points="-3.583,-15.039 -3.268,-14.921 -2.953,-14.685" stroke="#4daf4a" stroke-width="0.04" fill="none" opacity="0.8"/>
<circle cx="-3.583" cy="-15.039" r="0.08" fill="#4daf4a"/>
<polyline points="-3.110,-14.370 -3.307,-14.409 -3.740,-14.488 -4.134,-14.528 -4.409,-14.528 -4.843,-14.606 -4.921,-14.528" stroke="#984ea3" stroke-width="0.04" fill="none" opacity="0.8"/>
<circle cx="-3.110" cy="-14.370" r="0.08" fill="#984ea3"/>
<polyline points="-4.646,-14.724 -4.331,-14.961 -4.016,-15.079 -3.701,-14.606 -3.110,-14.370 -2.441,-14.173 -2.362,-14.094 -1.969,-14.016 -2.244,-13.701 -1.969,-13.583 -2.126,-13.268 -1.969,-13.110 -2.126,-12.795 -2.047,-12.638" stroke="#ff7f00" stroke-width="0.04" fill="none" opacity="0.8"/>
<circle cx="-4.646" cy="-14.724" r="0.08" fill="#ff7f00"/>
<polyline points="-1.811,-12.913 -1.811,-12.598 -1.654,-12.598" stroke="#a65628" stroke-width="0.04" fill="none" opacity="0.8"/>
<circle cx="-1.811" cy="-12.913" r="0.08" fill="#a65628"/>
<polyline points="-1.417,-12.520 -1.339,-12.835 -1.575,-13.150 -1.575,-13.307 -1.654,-13.622 -1.339,-13.976 -1.457,-14.291 -1.654,-14.331 -1.654,-14.331 -1.339,-14.055 -1.417,-13.583 -1.102,-13.504" stroke="#e41a1c" stroke-width="0.04" fill="none" opacity="0.8"/>
<circle cx="-1.417" cy="-12.520" r="0.08" fill="#e41a1c"/>
<polyline points="-1.339,-13.150 -1.457,-13.346 -1.496,-13.661 -1.378,-13.819 -1.929,-13.976 -2.087,-14.094 -2.402,-13.858 -2.756,-13.898 -3.071,-14.055 -3.386,-14.055 -3.307,-14.252 -3.740,-14.370 -3.780,-14.685 -3.976,-14.685 -4.291,-14.882 -4.449,-14.882 -4.134,-14.685 -4.213,-14.370 -4.055,-14.291 -3.740,-14.134 -3.858,-13.819 -3.780,-13.504 -3.858,-13.150 -3.622,-12.835 -3.543,-12.520 -3.858,-12.717 -3.583,-12.480" stroke="#377eb8" stroke-width="0.04" fill="none" opacity="0.8"/>
<circle cx="-1.339" cy="-13.150" r="0.08" fill="#377eb8"/>
<polyline points="-4.173,-12.559 -4.488,-12.480" stroke="#4daf4a" stroke-width="0.04" fill="none" opacity="0.8"/>
<circle cx="-4.173" cy="-12.559" r="0.08" fill="#4daf4a"/>
<polyline points="-4.606,-12.795 -4.882,-12.520 -4.724,-12.520 -4.606,-12.677 -4.764,-12.992 -5.000,-12.913" stroke="#984ea3" stroke-width="0.04" fill="none" opacity="0.8"/>
<circle cx="-4.606" cy="-12.795" r="0.08" fill="#984ea3"/>
<polyline points="-3.898,-13.307 -3.583,-13.031 -3.268,-13.071 -3.071,-13.071 -2.756,-13.031 -2.441,-12.992 -2.087,-13.110 -1.772,-13.031 -1.457,-13.031" stroke="#ff7f00" stroke-width="0.04" fill="none" opacity="0.8"/>
<circle cx="-3.898" cy="-13.307" r="0.08" fill="#ff7f00"/>
<polyline points="-1.142,-12.992 -1.102,-13.307 -1.220,-13.583 -1.063,-13.898 -1.142,-14.409 -1.260,-14.724 -1.457,-14.803 -1.575,-15.039 -1.614,-15.354" stroke="#a65628" stroke-width="0.04" fill="none" opacity="0.8"/>
<circle cx="-1.142" cy="-12.992" r="0.08" fill="#a65628"/>
<polyline points="-1.378,-15.354 -1.024,-15.472 -1.024,-15.157 -0.906,-14.646 -0.945,-14.331 -0.669,-13.937 -0.709,-13.622 -0.709,-13.307 -1.024,-12.913 -0.945,-12.638" stroke="#e41a1c" stroke-width="0.04" fill="none" opacity="0.8"/>
<circle cx="-1.378" cy="-15.354" r="0.08" fill="#e41a1c"/>
<polyline points="-0.512,-13.189 -0.512,-13.504 -0.512,-13.819 -0.276,-14.173 -0.354,-14.488 -0.551,-14.803 -0.827,-15.118 -0.906,-15.433" stroke="#377eb8" stroke-width="0.04" fill="none" opacity="0.8"/>
<circle cx="-0.512" cy="-13.189" r="0.08" fill="#377eb8"/>
<polyline points="-0.748,-15.669 -0.748,-15.591 -0.551,-15.276 -0.551,-14.961 -0.354,-14.646 -0.157,-14.764 -0.039,-14.370 -0.079,-14.173 0.039,-13.858 -0.079,-13.543 -0.236,-13.189 -0.197,-12.874" stroke="#4daf4a" stroke-width="0.04" fill="none" opacity="0.8"/>
<circle cx="-0.748" cy="-15.669" r="0.08" fill="#4daf4a"/>
<polyline points="-0.157,-12.559 -0.236,-12.717 -0.433,-12.756 -0.591,-12.756 -0.748,-13.071 -0.827,-13.386 -0.866,-13.701 -0.866,-14.016 -0.669,-14.449 -0.787,-14.764 -1.102,-15.000 -1.220,-15.315 -1.220,-15.472 -1.260,-15.906 -1.575,-16.024 -1.890,-15.748 -2.205,-15.551 -2.520,-15.394 -2.441,-15.433 -2.126,-15.709 -2.047,-15.945 -1.969,-16.496 -1.299,-16.811 -0.748,-17.126 -0.394,-17.441 -0.630,-17.244 -0.945,-17.008 -1.260,-16.811 -1.575,-16.654 -1.890,-16.535 -2.205,-16.417 -2.520,-16.181 -2.559,-15.906 -2.598,-16.024 -2.283,-16.142 -1.929,-16.299" stroke="#984ea3" stroke-width="0.04" fill="none" opacity="0.8"/>
<circle cx="-0.157" cy="-12.559" r="0.08" fill="#984ea3"/>
<polyline points="-1.535,-16.063 -1.732,-15.906 -1.850,-15.472 -2.283,-15.394 -1.969,-15.512 -1.417,-15.748 -1.220,-15.709 -0.906,-15.472 -0.787,-15.118 -0.472,-15.000 -0.315,-15.157 0.000,-15.118 0.315,-14.685 0.472,-14.252 0.787,-14.409 0.945,-14.449 1.260,-14.409 1.299,-14.646 1.496,-15.197 1.575,-15.079 1.339,-14.764 1.496,-14.646 1.378,-14.331 1.535,-14.016 1.260,-13.858 1.299,-13.543 1.181,-13.110 0.945,-12.756 0.827,-12.520 1.142,-12.559 1.339,-12.559 1.220,-12.874 1.260,-13.268 1.142,-13.661 0.984,-13.858 0.984,-13.937 0.906,-14.173 0.709,-13.740 0.315,-13.740 0.000,-14.094 -0.039,-14.409 -0.354,-14.488 -0.787,-14.488 -0.984,-14.882 -1.063,-14.646 -1.378,-14.724 -1.732,-14.961 -1.693,-14.882 -2.047,-14.843 -2.244,-15.157 -2.205,-15.433 -1.693,-15.748 -1.457,-15.945 -1.339,-16.142 -1.260,-16.181 -1.024,-16.496 -1.220,-16.378 -1.299,-16.142" stroke="#ff7f00" stroke-width="0.04" fill="none" opacity="0.8"/>
<circle cx="-1.535" cy="-16.063" r="0.08" fill="#ff7f00"/>
<polyline points="-1.772,-15.551 -2.087,-15.354 -2.402,-15.315 -2.717,-15.197 -3.031,-15.118 -3.346,-15.157 -3.661,-15.118 -3.976,-15.157" stroke="#a65628" stroke-width="0.04" fill="none" opacity="0.8"/>
<circle cx="-1.772" cy="-15.551" r="0.08" fill="#a65628"/>
<polyline points="-4.016,-14.764 -3.937,-14.449 -3.858,-13.898 -3.701,-14.173 -3.386,-14.173 -3.031,-13.937 -2.874,-13.543 -2.559,-13.346 -2.244,-13.150" stroke="#e41a1c" stroke-width="0.04" fill="none" opacity="0.8"/>
<circle cx="-4.016" cy="-14.764" r="0.08" fill="#e41a1c"/>
<polyline points="-2.087,-13.622 -2.165,-13.976 -1.890,-14.291" stroke="#377eb8" stroke-width="0.04" fill="none" opacity="0.8"/>
<circle cx="-2.087" cy="-13.622" r="0.08" fill="#377eb8"/>
<polyline points="-1.890,-14.882 -2.205,-14.961" stroke="#4daf4a" stroke-width="0.04" fill="none" opacity="0.8"/>
<circle cx="-1.890" cy="-14.882" r="0.08" fill="#4daf4a"/>
<polyline points="-2.638,-16.220 -3.110,-15.906 -3.504,-15.591 -3.976,-15.276 -3.701,-15.079 -3.386,-14.843 -3.346,-14.685 -3.071,-14.528 -2.756,-14.252 -2.441,-14.134 -2.835,-13.819 -2.756,-13.504 -2.283,-13.583 -2.598,-13.110 -2.402,-12.756 -2.205,-12.598 -2.480,-12.559 -2.126,-12.874 -1.850,-12.835 -1.417,-12.559 -1.339,-12.874 -0.906,-12.717 -0.709,-12.992 -0.512,-12.598 -0.472,-12.992 -0.157,-12.953 0.157,-13.189 0.354,-13.386 0.709,-13.622" stroke="#984ea3" stroke-width="0.04" fill="none" opacity="0.8"/>
<circle cx="-2.638" cy="-16.220" r="0.08" fill="#984ea3"/>
<polyline points="0.551,-13.386 0.433,-13.071 0.551,-12.874 0.394,-12.756 0.512,-12.717 0.709,-12.677 0.827,-12.717 0.787,-13.031 0.630,-13.346" stroke="#ff7f00" stroke-width="0.04" fill="none" opacity="0.8"/>
<circle cx="0.551" cy="-13.386" r="0.08" fill="#ff7f00"/>
<polyline points="0.236,-13.622 0.354,-13.622 -0.079,-13.701" stroke="#a65628" stroke-width="0.04" fill="none" opacity="0.8"/>
<circle cx="0.236" cy="-13.622" r="0.08" fill="#a65628"/>
<polyline points="-0.630,-13.268 -0.591,-13.583 -0.591,-13.898 -0.669,-14.094" stroke="#e41a1c" stroke-width="0.04" fill="none" opacity="0.8"/>
<circle cx="-0.630" cy="-13.268" r="0.08" fill="#e41a1c"/>
<polyline points="1.457,-13.583 1.496,-13.268 1.732,-12.992 2.008,-12.992" stroke="#377eb8" stroke-width="0.04" fill="none" opacity="0.8"/>
<circle cx="1.457" cy="-13.583" r="0.08" fill="#377eb8"/>
<polyline points="-2.638,-12.638 -2.717,-12.795 -2.795,-12.874 -3.150,-12.756 -3.465,-12.795 -3.504,-13.189 -3.583,-13.504 -3.740,-13.819 -3.661,-13.701" stroke="#4daf4a" stroke-width="0.04" fill="none" opacity="0.8"/>
<circle cx="-2.638" cy="-12.638" r="0.08" fill="#4daf4a"/>
<polyline points="-3.268,-13.543 -2.992,-13.346 -2.953,-13.031 -2.795,-12.559" stroke="#984ea3" stroke-width="0.04" fill="none" opacity="0.8"/>
<circle cx="-3.268" cy="-13.543" r="0.08" fill="#984ea3"/>
<polyline points="-3.031,-12.756 -2.756,-12.913 -2.756,-13.228 -2.874,-13.543 -2.953,-13.858" stroke="#ff7f00" stroke-width="0.04" fill="none" opacity="0.8"/>
<circle cx="-3.031" cy="-12.756" r="0.08" fill="#ff7f00"/>
<polyline points="-3.740,-14.291 -4.055,-14.213 -4.370,-14.094 -4.685,-14.094 -5.000,-14.094" stroke="#a65628" stroke-width="0.04" fill="none" opacity="0.8"/>
<circle cx="-3.740" cy="-14.291" r="0.08" fill="#a65628"/>
</svg>