<svg xmlns="http://www.w3.org/2000/svg" width="12.00cm" height="10.86cm" viewBox="-6.000 -20.429 12.000 10.858">
<rect x="-6.000" y="-20.429" width="12.000" height="10.858" fill="white" stroke="#ccc" stroke-width="0.02"/>
<polyline points="0.039,-19.429 -0.039,-19.390 0.000,-19.075 -0.197,-18.720 -0.118,-18.406 -0.118,-18.091 -0.118,-17.776 -0.157,-17.461 -0.157,-17.146 -0.157,-16.831 -0.197,-16.516 -0.236,-16.201 -0.276,-15.886 -0.315,-15.571 -0.433,-15.217 -0.433,-14.902 -0.591,-14.587 -0.787,-14.272 -0.827,-13.957 -1.024,-13.602 -1.220,-13.287 -1.260,-12.933 -1.378,-12.618 -1.614,-12.461 -1.378,-12.618 -1.063,-12.579 -0.945,-13.130 -0.787,-13.799 -0.472,-13.799 -0.157,-13.799 0.157,-13.799 0.472,-13.799 0.630,-13.996 1.024,-13.878 1.339,-13.366 1.614,-13.169 1.890,-13.366 2.126,-13.169 2.441,-13.287 2.480,-13.445 2.874,-13.681 3.189,-13.799 3.504,-13.917 3.819,-14.035 4.134,-14.154 4.449,-14.272 4.764,-14.350 4.803,-14.272 4.724,-14.193 4.646,-14.350 3.780,-14.035 2.992,-13.720 2.638,-13.406 2.559,-12.933 2.717,-13.051 2.756,-12.500" stroke="#e41a1c" stroke-width="0.04" fill="none" opacity="0.8"/>
<circle cx="0.039" cy="-19.429" r="0.08" fill="#e41a1c"/>
<polyline points="3.150,-12.421 3.465,-12.343 3.780,-12.303 4.094,-12.264 4.409,-12.264 4.685,-12.224 5.000,-12.185" stroke="#377eb8" stroke-width="0.04" fill="none" opacity="0.8"/>
<circle cx="3.150" cy="-12.421" r="0.08" fill="#377eb8"/>
<polyline points="4.764,-12.303 4.882,-12.579 4.567,-12.618 4.252,-12.382 3.937,-12.500 3.622,-12.500 3.307,-12.421 2.992,-12.500 2.874,-12.421 2.756,-12.500 2.323,-12.618 2.283,-12.421 2.008,-12.461 1.929,-12.579 1.457,-12.697 1.299,-12.697 1.339,-12.500 1.496,-12.933 1.181,-13.051 1.339,-13.287 1.181,-13.563 0.945,-13.839 0.945,-14.154 0.709,-14.469 0.512,-14.547 0.551,-14.862 0.157,-15.098 -0.157,-15.059 -0.197,-15.177 -0.276,-14.862 -0.433,-14.547 -0.433,-14.665 -0.315,-15.295 0.000,-15.295 0.039,-15.217 0.394,-15.217 0.472,-15.217 0.472,-15.453 0.157,-15.453 0.354,-15.768 0.276,-16.083 0.118,-16.201 0.236,-16.516 0.118,-16.713 0.000,-17.106 0.000,-17.421" stroke="#4daf4a" stroke-width="0.04" fill="none" opacity="0.8"/>
<circle cx="4.764" cy="-12.303" r="0.08" fill="#4daf4a"/>
<polyline points="0.079,-16.870 -0.236,-16.437" stroke="#984ea3" stroke-width="0.04" fill="none" opacity="0.8"/>
<circle cx="0.079" cy="-16.870" r="0.08" fill="#984ea3"/>
<polyline points="0.197,-15.965 0.197,-15.650" stroke="#ff7f00" stroke-width="0.04" fill="none" opacity="0.8"/>
<circle cx="0.197" cy="-15.965" r="0.08" fill="#ff7f00"/>
<polyline points="0.276,-15.374 -0.039,-15.374 -0.354,-15.413 -0.472,-15.453 -0.157,-15.453" stroke="#a65628" stroke-width="0.04" fill="none" opacity="0.8"/>
<circle cx="0.276" cy="-15.374" r="0.08" fill="#a65628"/>
<polyline points="-0.118,-14.783 -0.079,-14.823 0.236,-14.902" stroke="#e41a1c" stroke-width="0.04" fill="none" opacity="0.8"/>
<circle cx="-0.118" cy="-14.783" r="0.08" fill="#e41a1c"/>
<polyline points="0.315,-14.665 0.000,-14.311 -0.472,-14.232 -0.787,-14.075 -0.827,-14.154 -0.709,-14.311 -0.276,-14.783 -0.315,-14.469 -0.551,-14.350 -0.433,-13.839 -0.709,-13.563 -0.866,-13.248 -1.063,-12.933 -1.102,-12.500 -0.906,-12.579 -0.630,-12.657 -0.472,-12.854 -0.276,-12.736 -0.118,-12.894 0.197,-12.933 0.433,-13.012" stroke="#377eb8" stroke-width="0.04" fill="none" opacity="0.8"/>
<circle cx="0.315" cy="-14.665" r="0.08" fill="#377eb8"/>
<polyline points="0.709,-13.012 0.394,-13.327 0.551,-13.642" stroke="#4daf4a" stroke-width="0.04" fill="none" opacity="0.8"/>
<circle cx="0.709" cy="-13.012" r="0.08" fill="#4daf4a"/>
<polyline points="0.787,-13.799 0.787,-13.917 0.472,-13.917 0.276,-13.996 -0.039,-13.996 -0.354,-13.996 -0.669,-13.996 -0.984,-13.760" stroke="#984ea3" stroke-width="0.04" fill="none" opacity="0.8"/>
<circle cx="0.787" cy="-13.799" r="0.08" fill="#984ea3"/>
<polyline points="-0.354,-13.484 -0.394,-13.287 -0.591,-12.972 -0.472,-12.736 -0.709,-12.579 -0.354,-12.421 -0.236,-12.579 -0.039,-12.461 0.118,-12.854 0.157,-12.697 0.315,-12.539 0.709,-12.500 1.024,-12.500 1.063,-12.421 1.378,-12.500" stroke="#ff7f00" stroke-width="0.04" fill="none" opacity="0.8"/>
<circle cx="-0.354" cy="-13.484" r="0.08" fill="#ff7f00"/>
<polyline points="1.732,-12.303 2.047,-12.343 2.362,-12.264" stroke="#a65628" stroke-width="0.04" fill="none" opacity="0.8"/>
<circle cx="1.732" cy="-12.303" r="0.08" fill="#a65628"/>
<polyline points="2.717,-12.028 3.031,-11.988 3.346,-11.949 3.465,-11.673 3.780,-11.673 4.094,-11.634 4.016,-11.752 3.701,-11.791 3.386,-11.870" stroke="#e41a1c" stroke-width="0.04" fill="none" opacity="0.8"/>
<circle cx="2.717" cy="-12.028" r="0.08" fill="#e41a1c"/>
<polyline points="2.913,-11.516 2.598,-11.555 2.283,-11.555 1.969,-11.555 1.654,-11.476 1.417,-11.516 1.102,-11.555 0.630,-11.240 0.315,-11.122 0.433,-11.122 0.748,-11.122 1.299,-10.965 1.614,-10.886" stroke="#377eb8" stroke-width="0.04" fill="none" opacity="0.8"/>
<circle cx="2.913" cy="-11.516" r="0.08" fill="#377eb8"/>
<polyline points="1.378,-11.398 1.063,-11.437" stroke="#4daf4a" stroke-width="0.04" fill="none" opacity="0.8"/>
<circle cx="1.378" cy="-11.398" r="0.08" fill="#4daf4a"/>
<polyline points="1.102,-11.791 0.984,-11.476 0.984,-11.161 0.827,-11.083 0.669,-10.728 1.102,-10.807 1.417,-10.768 1.732,-10.728 2.047,-10.689 2.323,-10.807 2.638,-10.768 2.559,-10.965 2.244,-11.004 1.969,-11.043 1.654,-11.004 1.339,-11.201 1.024,-11.240 0.748,-10.846 0.433,-10.728 0.512,-10.965 0.472,-11.240 0.472,-11.516 0.354,-11.398 0.039,-11.240 0.039,-11.122" stroke="#984ea3" stroke-width="0.04" fill="none" opacity="0.8"/>
<circle cx="1.102" cy="-11.791" r="0.08" fill="#984ea3"/>
<polyline points="-0.236,-11.752 0.079,-11.831 0.315,-11.713 0.472,-11.516 0.945,-11.319 1.260,-11.319 1.575,-11.240 1.890,-11.201 2.205,-11.201 2.520,-11.201" stroke="#ff7f00" stroke-width="0.04" fill="none" opacity="0.8"/>
<circle cx="-0.236" cy="-11.752" r="0.08" fill="#ff7f00"/>
<polyline points="2.756,-11.398 2.441,-11.437 2.126,-11.437 1.811,-11.476 1.732,-11.673 1.417,-11.713 1.102,-11.673 0.827,-11.831 0.512,-11.870 0.197,-11.949 0.079,-12.146 0.157,-12.067 0.315,-12.539 0.079,-12.657 0.315,-13.051 0.276,-13.366 0.315,-13.366 0.630,-13.209" stroke="#a65628" stroke-width="0.04" fill="none" opacity="0.8"/>
<circle cx="2.756" cy="-11.398" r="0.08" fill="#a65628"/>
<polyline points="0.197,-13.366 0.197,-13.051 0.394,-12.776 0.827,-12.697" stroke="#e41a1c" stroke-width="0.04" fill="none" opacity="0.8"/>
<circle cx="0.197" cy="-13.366" r="0.08" fill="#e41a1c"/>
<polyline points="0.748,-12.421 0.276,-12.421 0.039,-12.461 -0.118,-12.382 -0.276,-12.539 -0.433,-12.579 -0.118,-12.815 -0.315,-13.012 -0.079,-13.051 -0.157,-13.051 -0.079,-13.366" stroke="#377eb8" stroke-width="0.04" fill="none" opacity="0.8"/>
<circle cx="0.748" cy="-12.421" r="0.08" fill="#377eb8"/>
<polyline points="-0.591,-13.051 -0.276,-13.327 0.039,-13.406 0.354,-13.484 0.787,-13.287 0.984,-13.209 1.063,-13.051 1.102,-13.287" stroke="#4daf4a" stroke-width="0.04" fill="none" opacity="0.8"/>
<circle cx="-0.591" cy="-13.051" r="0.08" fill="#4daf4a"/>
<polyline points="1.102,-13.051 1.063,-13.445 0.984,-13.681 0.669,-13.720 0.354,-13.602 0.039,-13.681 -0.276,-13.563 -0.512,-13.484 -0.827,-13.169 -1.063,-12.854 -0.827,-13.169 -0.551,-13.484 -0.827,-13.642 -1.142,-13.406 -1.457,-13.091 -1.772,-13.051 -1.732,-12.933 -1.772,-13.248" stroke="#984ea3" stroke-width="0.04" fill="none" opacity="0.8"/>
<circle cx="1.102" cy="-13.051" r="0.08" fill="#984ea3"/>
<polyline points="-1.969,-12.618 -1.969,-12.972 -1.850,-13.287 -2.008,-13.327 -2.323,-13.445 -2.638,-13.563 -2.953,-13.681 -3.268,-13.760 -3.583,-13.760 -3.898,-13.720 -4.213,-13.760 -4.528,-13.720 -4.843,-13.602" stroke="#ff7f00" stroke-width="0.04" fill="none" opacity="0.8"/>
<circle cx="-1.969" cy="-12.618" r="0.08" fill="#ff7f00"/>
<polyline points="-5.000,-13.799 -4.724,-13.681 -4.803,-13.366 -4.882,-12.933 -4.843,-12.776 -4.961,-12.461 -5.000,-12.697 -4.685,-12.854 -4.606,-12.776 -4.291,-12.776 -4.213,-12.343 -3.976,-12.736 -3.661,-12.854 -3.346,-12.539 -2.992,-12.539 -2.913,-12.736" stroke="#a65628" stroke-width="0.04" fill="none" opacity="0.8"/>
<circle cx="-5.000" cy="-13.799" r="0.08" fill="#a65628"/>
<polyline points="-2.992,-12.461 -2.795,-12.933 -2.992,-13.091 -3.189,-12.933 -3.307,-12.736 -3.740,-13.091 -3.858,-13.287 -4.055,-12.972 -4.016,-13.051 -3.898,-13.209 -4.331,-13.327 -4.449,-13.406 -4.134,-13.524 -3.740,-13.366 -3.661,-13.051 -3.858,-12.854" stroke="#e41a1c" stroke-width="0.04" fill="none" opacity="0.8"/>
<circle cx="-2.992" cy="-12.461" r="0.08" fill="#e41a1c"/>
<polyline points="-4.094,-12.461 -4.094,-12.776 -4.173,-13.091 -4.173,-13.209" stroke="#377eb8" stroke-width="0.04" fill="none" opacity="0.8"/>
<circle cx="-4.094" cy="-12.461" r="0.08" fill="#377eb8"/>
<polyline points="-3.819,-13.524 -3.504,-13.366 -3.425,-13.327 -3.543,-13.012 -3.307,-12.657 -3.346,-12.500 -3.583,-12.343 -3.110,-12.382 -2.795,-12.382" stroke="#4daf4a" stroke-width="0.04" fill="none" opacity="0.8"/>
<circle cx="-3.819" cy="-13.524" r="0.08" fill="#4daf4a"/>
<polyline points="-2.441,-12.343 -2.559,-12.343 -2.717,-12.421 -3.031,-12.264 -3.346,-12.264 -3.661,-12.224 -3.976,-12.185 -4.055,-12.382 -4.291,-12.697 -4.409,-13.091 -4.449,-13.406 -4.606,-13.484 -4.882,-13.169 -5.000,-13.287 -4.567,-13.169 -4.528,-12.854" stroke="#984ea3" stroke-width="0.04" fill="none" opacity="0.8"/>
<circle cx="-2.441" cy="-12.343" r="0.08" fill="#984ea3"/>
<polyline points="-4.449,-12.618 -4.764,-12.657" stroke="#ff7f00" stroke-width="0.04" fill="none" opacity="0.8"/>
<circle cx="-4.449" cy="-12.618" r="0.08" fill="#ff7f00"/>
<polyline points="-5.000,-12.303 -4.685,-12.303 -4.370,-12.343" stroke="#a65628" stroke-width="0.04" fill="none" opacity="0.8"/>
<circle cx="-5.000" cy="-12.303" r="0.08" fill="#a65628"/>
<polyline points="-3.740,-12.343 -4.055,-12.264 -4.370,-12.146 -4.685,-12.106 -5.000,-12.067" stroke="#e41a1c" stroke-width="0.04" fill="none" opacity="0.8"/>
<circle cx="-3.740" cy="-12.343" r="0.08" fill="#e41a1c"/>
<polyline points="-4.173,-10.807 -3.858,-10.807 -3.543,-11.083 -3.031,-10.965 -2.638,-11.083 -2.480,-10.886 -2.165,-10.886" stroke="#377eb8" stroke-width="0.04" fill="none" opacity="0.8"/>
<circle cx="-4.173" cy="-10.807" r="0.08" fill="#377eb8"/>
<polyline points="-1.929,-10.650 -2.244,-10.689 -2.559,-10.689 -2.835,-10.768 -2.874,-10.610 -3.110,-10.571 -2.874,-10.886 -2.795,-11.161 -3.110,-11.122 -3.425,-11.201 -3.740,-11.122" stroke="#4daf4a" stroke-width="0.04" fill="none" opacity="0.8"/>
<circle cx="-1.929" cy="-10.650" r="0.08" fill="#4daf4a"/>
<polyline points="-2.244,-11.713 -1.929,-11.752" stroke="#984ea3" stroke-width="0.04" fill="none" opacity="0.8"/>
<circle cx="-2.244" cy="-11.713" r="0.08" fill="#984ea3"/>
<polyline points="-1.614,-12.579 -1.929,-12.461 -2.126,-12.461 -2.441,-12.382 -2.047,-12.657 -2.126,-12.697 -2.165,-12.854 -2.165,-13.169 -2.323,-13.327 -2.874,-13.642" stroke="#ff7f00" stroke-width="0.04" fill="none" opacity="0.8"/>
<circle cx="-1.614" cy="-12.579" r="0.08" fill="#ff7f00"/>
<polyline points="-2.480,-13.327 -2.520,-13.091 -2.559,-12.657" stroke="#a65628" stroke-width="0.04" fill="none" opacity="0.8"/>
<circle cx="-2.480" cy="-13.327" r="0.08" fill="#a65628"/>
<polyline points="-2.205,-12.697 -2.480,-12.815 -2.598,-12.972 -2.874,-12.815 -3.189,-12.854" stroke="#e41a1c" stroke-width="0.04" fill="none" opacity="0.8"/>
<circle cx="-2.205" cy="-12.697" r="0.08" fill="#e41a1c"/>
<polyline points="-4.685,-14.035 -5.000,-14.035" stroke="#377eb8" stroke-width="0.04" fill="none" opacity="0.8"/>
<circle cx="-4.685" cy="-14.035" r="0.08" fill="#377eb8"/>
<polyline points="-0.787,-12.500 -0.472,-12.421" stroke="#4daf4a" stroke-width="0.04" fill="none" opacity="0.8"/>
<circle cx="-0.787" cy="-12.500" r="0.08" fill="#4daf4a"/>
<polyline points="-0.669,-11.043 -0.984,-10.925 -1.102,-11.004 -1.417,-10.807" stroke="#984ea3" stroke-width="0.04" fill="none" opacity="0.8"/>
<circle cx="-0.669" cy="-11.043" r="0.08" fill="#984ea3"/>
<polyline points="1.024,-10.650 1.339,-10.650 1.654,-10.610 1.969,-10.571 2.283,-10.610" stroke="#ff7f00" stroke-width="0.04" fill="none" opacity="0.8"/>
<circle cx="1.024" cy="-10.650" r="0.08" fill="#ff7f00"/>
<polyline points="1.535,-11.870 1.220,-11.870 0.906,-11.870" stroke="#a65628" stroke-width="0.04" fill="none" opacity="0.8"/>
<circle cx="1.535" cy="-11.870" r="0.08" fill="#a65628"/>
<polyline points="2.008,-12.539 1.890,-12.972 2.087,-13.091 1.929,-13.406" stroke="#e41a1c" stroke-width="0.04" fill="none" opacity="0.8"/>
<circle cx="2.008" cy="-12.539" r="0.08" fill="#e41a1c"/>
<polyline points="2.441,-13.012 2.756,-13.169" stroke="#377eb8" stroke-width="0.04" fill="none" opacity="0.8"/>
<circle cx="2.441" cy="-13.012" r="0.08" fill="#377eb8"/>
<polyline points="3.504,-13.524 3.819,-13.642 4.134,-13.642 3.937,-13.602 3.937,-13.445" stroke="#4daf4a" stroke-width="0.04" fill="none" opacity="0.8"/>
<circle cx="3.504" cy="-13.524" r="0.08" fill="#4daf4a"/>
<polyline points="4.646,-10.689 4.961,-10.610" stroke="#984ea3" stroke-width="0.04" fill="none" opacity="0.8"/>
<circle cx="4.646" cy="-10.689" r="0.08" fill="#984ea3"/>
<polyline points="0.945,-14.272 0.827,-14.154 0.512,-14.154 0.276,-14.114 -0.039,-14.114 -0.276,-14.154 -0.157,-14.272 -0.118,-14.587 -0.157,-14.902 0.197,-15.059 0.512,-15.295 0.118,-15.610 0.079,-15.925 0.157,-16.280 -0.118,-15.925 -0.039,-15.807 -0.157,-15.846 -0.079,-16.161 -0.039,-16.476 -0.039,-16.791 0.157,-17.067 0.157,-17.382 0.118,-17.697 0.118,-18.012 0.079,-18.327 0.079,-18.642 0.197,-18.642 -0.079,-18.917 -0.079,-18.839 -0.157,-18.720 0.157,-18.681" stroke="#ff7f00" stroke-width="0.04" fill="none" opacity="0.8"/>
<circle cx="0.945" cy="-14.272" r="0.08" fill="#ff7f00"/>
<polyline points="0.472,-14.744 0.315,-14.626 0.236,-14.547 0.315,-14.272 0.551,-14.508 0.472,-14.272" stroke="#a65628" stroke-width="0.04" fill="none" opacity="0.8"/>
<circle cx="0.472" cy="-14.744" r="0.08" fill="#a65628"/>
</svg>