<svg xmlns="http://www.w3.org/2000/svg" version="1.1" xmlns:xlink="http://www.w3.org/1999/xlink" width="254" height="254">
<polyline points="128.0,29.0,126.0,30.0,127.0,38.0,122.0,47.0,124.0,55.0,124.0,63.0,124.0,71.0,123.0,79.0,123.0,87.0,123.0,95.0,122.0,103.0,121.0,111.0,120.0,119.0,119.0,127.0,116.0,136.0,116.0,144.0,112.0,152.0,107.0,160.0,106.0,168.0,101.0,177.0,96.0,185.0,95.0,194.0,92.0,202.0,86.0,206.0,92.0,202.0,100.0,203.0,103.0,189.0,107.0,172.0,115.0,172.0,123.0,172.0,131.0,172.0,139.0,172.0,143.0,167.0,153.0,170.0,161.0,183.0,168.0,188.0,175.0,183.0,181.0,188.0,189.0,185.0,190.0,181.0,200.0,175.0,208.0,172.0,216.0,169.0,224.0,166.0,232.0,163.0,240.0,160.0,248.0,158.0,249.0,160.0,247.0,162.0,245.0,158.0,223.0,166.0,203.0,174.0,194.0,182.0,192.0,194.0,196.0,191.0,197.0,205.0" stroke="black" stroke-width="1" fill="none" />
<polyline points="207.0,207.0,215.0,209.0,223.0,210.0,231.0,211.0,239.0,211.0,246.0,212.0,254.0,213.0" stroke="black" stroke-width="1" fill="none" />
<polyline points="248.0,210.0,251.0,203.0,243.0,202.0,235.0,208.0,227.0,205.0,219.0,205.0,211.0,207.0,203.0,205.0,200.0,207.0,197.0,205.0,186.0,202.0,185.0,207.0,178.0,206.0,176.0,203.0,164.0,200.0,160.0,200.0,161.0,205.0,165.0,194.0,157.0,191.0,161.0,185.0,157.0,178.0,151.0,171.0,151.0,163.0,145.0,155.0,140.0,153.0,141.0,145.0,131.0,139.0,123.0,140.0,122.0,137.0,120.0,145.0,116.0,153.0,116.0,150.0,119.0,134.0,127.0,134.0,128.0,136.0,137.0,136.0,139.0,136.0,139.0,130.0,131.0,130.0,136.0,122.0,134.0,114.0,130.0,111.0,133.0,103.0,130.0,98.0,127.0,88.0,127.0,80.0" stroke="black" stroke-width="1" fill="none" />
<polyline points="129.0,94.0,121.0,105.0" stroke="black" stroke-width="1" fill="none" />
<polyline points="132.0,117.0,132.0,125.0" stroke="black" stroke-width="1" fill="none" />
<polyline points="134.0,132.0,126.0,132.0,118.0,131.0,115.0,130.0,123.0,130.0" stroke="black" stroke-width="1" fill="none" />
<polyline points="124.0,147.0,125.0,146.0,133.0,144.0" stroke="black" stroke-width="1" fill="none" />
<polyline points="135.0,150.0,127.0,159.0,115.0,161.0,107.0,165.0,106.0,163.0,109.0,159.0,120.0,147.0,119.0,155.0,113.0,158.0,116.0,171.0,109.0,178.0,105.0,186.0,100.0,194.0,99.0,205.0,104.0,203.0,111.0,201.0,115.0,196.0,120.0,199.0,124.0,195.0,132.0,194.0,138.0,192.0" stroke="black" stroke-width="1" fill="none" />
<polyline points="145.0,192.0,137.0,184.0,141.0,176.0" stroke="black" stroke-width="1" fill="none" />
<polyline points="147.0,172.0,147.0,169.0,139.0,169.0,134.0,167.0,126.0,167.0,118.0,167.0,110.0,167.0,102.0,173.0" stroke="black" stroke-width="1" fill="none" />
<polyline points="118.0,180.0,117.0,185.0,112.0,193.0,115.0,199.0,109.0,203.0,118.0,207.0,121.0,203.0,126.0,206.0,130.0,196.0,131.0,200.0,135.0,204.0,145.0,205.0,153.0,205.0,154.0,207.0,162.0,205.0" stroke="black" stroke-width="1" fill="none" />
<polyline points="171.0,210.0,179.0,209.0,187.0,211.0" stroke="black" stroke-width="1" fill="none" />
<polyline points="196.0,217.0,204.0,218.0,212.0,219.0,215.0,226.0,223.0,226.0,231.0,227.0,229.0,224.0,221.0,223.0,213.0,221.0" stroke="black" stroke-width="1" fill="none" />
<polyline points="201.0,230.0,193.0,229.0,185.0,229.0,177.0,229.0,169.0,231.0,163.0,230.0,155.0,229.0,143.0,237.0,135.0,240.0,138.0,240.0,146.0,240.0,160.0,244.0,168.0,246.0" stroke="black" stroke-width="1" fill="none" />
<polyline points="162.0,233.0,154.0,232.0" stroke="black" stroke-width="1" fill="none" />
<polyline points="155.0,223.0,152.0,231.0,152.0,239.0,148.0,241.0,144.0,250.0,155.0,248.0,163.0,249.0,171.0,250.0,179.0,251.0,186.0,248.0,194.0,249.0,192.0,244.0,184.0,243.0,177.0,242.0,169.0,243.0,161.0,238.0,153.0,237.0,146.0,247.0,138.0,250.0,140.0,244.0,139.0,237.0,139.0,230.0,136.0,233.0,128.0,237.0,128.0,240.0" stroke="black" stroke-width="1" fill="none" />
<polyline points="121.0,224.0,129.0,222.0,135.0,225.0,139.0,230.0,151.0,235.0,159.0,235.0,167.0,237.0,175.0,238.0,183.0,238.0,191.0,238.0" stroke="black" stroke-width="1" fill="none" />
<polyline points="197.0,233.0,189.0,232.0,181.0,232.0,173.0,231.0,171.0,226.0,163.0,225.0,155.0,226.0,148.0,222.0,140.0,221.0,132.0,219.0,129.0,214.0,131.0,216.0,135.0,204.0,129.0,201.0,135.0,191.0,134.0,183.0,135.0,183.0,143.0,187.0" stroke="black" stroke-width="1" fill="none" />
<polyline points="132.0,183.0,132.0,191.0,137.0,198.0,148.0,200.0" stroke="black" stroke-width="1" fill="none" />
<polyline points="146.0,207.0,134.0,207.0,128.0,206.0,124.0,208.0,120.0,204.0,116.0,203.0,124.0,197.0,119.0,192.0,125.0,191.0,123.0,191.0,125.0,183.0" stroke="black" stroke-width="1" fill="none" />
<polyline points="112.0,191.0,120.0,184.0,128.0,182.0,136.0,180.0,147.0,185.0,152.0,187.0,154.0,191.0,155.0,185.0" stroke="black" stroke-width="1" fill="none" />
<polyline points="155.0,191.0,154.0,181.0,152.0,175.0,144.0,174.0,136.0,177.0,128.0,175.0,120.0,178.0,114.0,180.0,106.0,188.0,100.0,196.0,106.0,188.0,113.0,180.0,106.0,176.0,98.0,182.0,90.0,190.0,82.0,191.0,83.0,194.0,82.0,186.0" stroke="black" stroke-width="1" fill="none" />
<polyline points="77.0,202.0,77.0,193.0,80.0,185.0,76.0,184.0,68.0,181.0,60.0,178.0,52.0,175.0,44.0,173.0,36.0,173.0,28.0,174.0,20.0,173.0,12.0,174.0,4.0,177.0" stroke="black" stroke-width="1" fill="none" />
<polyline points="0.0,172.0,7.0,175.0,5.0,183.0,3.0,194.0,4.0,198.0,1.0,206.0,0.0,200.0,8.0,196.0,10.0,198.0,18.0,198.0,20.0,209.0,26.0,199.0,34.0,196.0,42.0,204.0,51.0,204.0,53.0,199.0" stroke="black" stroke-width="1" fill="none" />
<polyline points="51.0,206.0,56.0,194.0,51.0,190.0,46.0,194.0,43.0,199.0,32.0,190.0,29.0,185.0,24.0,193.0,25.0,191.0,28.0,187.0,17.0,184.0,14.0,182.0,22.0,179.0,32.0,183.0,34.0,191.0,29.0,196.0" stroke="black" stroke-width="1" fill="none" />
<polyline points="23.0,206.0,23.0,198.0,21.0,190.0,21.0,187.0" stroke="black" stroke-width="1" fill="none" />
<polyline points="30.0,179.0,38.0,183.0,40.0,184.0,37.0,192.0,43.0,201.0,42.0,205.0,36.0,209.0,48.0,208.0,56.0,208.0" stroke="black" stroke-width="1" fill="none" />
<polyline points="65.0,209.0,62.0,209.0,58.0,207.0,50.0,211.0,42.0,211.0,34.0,212.0,26.0,213.0,24.0,208.0,18.0,200.0,15.0,190.0,14.0,182.0,10.0,180.0,3.0,188.0,0.0,185.0,11.0,188.0,12.0,196.0" stroke="black" stroke-width="1" fill="none" />
<polyline points="14.0,202.0,6.0,201.0" stroke="black" stroke-width="1" fill="none" />
<polyline points="0.0,210.0,8.0,210.0,16.0,209.0" stroke="black" stroke-width="1" fill="none" />
<polyline points="32.0,209.0,24.0,211.0,16.0,214.0,8.0,215.0,0.0,216.0" stroke="black" stroke-width="1" fill="none" />
<polyline points="21.0,248.0,29.0,248.0,37.0,241.0,50.0,244.0,60.0,241.0,64.0,246.0,72.0,246.0" stroke="black" stroke-width="1" fill="none" />
<polyline points="78.0,252.0,70.0,251.0,62.0,251.0,55.0,249.0,54.0,253.0,48.0,254.0,54.0,246.0,56.0,239.0,48.0,240.0,40.0,238.0,32.0,240.0" stroke="black" stroke-width="1" fill="none" />
<polyline points="70.0,225.0,78.0,224.0" stroke="black" stroke-width="1" fill="none" />
<polyline points="86.0,203.0,78.0,206.0,73.0,206.0,65.0,208.0,75.0,201.0,73.0,200.0,72.0,196.0,72.0,188.0,68.0,184.0,54.0,176.0" stroke="black" stroke-width="1" fill="none" />
<polyline points="64.0,184.0,63.0,190.0,62.0,201.0" stroke="black" stroke-width="1" fill="none" />
<polyline points="71.0,200.0,64.0,197.0,61.0,193.0,54.0,197.0,46.0,196.0" stroke="black" stroke-width="1" fill="none" />
<polyline points="8.0,166.0,0.0,166.0" stroke="black" stroke-width="1" fill="none" />
<polyline points="107.0,205.0,115.0,207.0" stroke="black" stroke-width="1" fill="none" />
<polyline points="110.0,242.0,102.0,245.0,99.0,243.0,91.0,248.0" stroke="black" stroke-width="1" fill="none" />
<polyline points="153.0,252.0,161.0,252.0,169.0,253.0,177.0,254.0,185.0,253.0" stroke="black" stroke-width="1" fill="none" />
<polyline points="166.0,221.0,158.0,221.0,150.0,221.0" stroke="black" stroke-width="1" fill="none" />
<polyline points="178.0,204.0,175.0,193.0,180.0,190.0,176.0,182.0" stroke="black" stroke-width="1" fill="none" />
<polyline points="189.0,192.0,197.0,188.0" stroke="black" stroke-width="1" fill="none" />
<polyline points="216.0,179.0,224.0,176.0,232.0,176.0,227.0,177.0,227.0,181.0" stroke="black" stroke-width="1" fill="none" />
<polyline points="245.0,251.0,253.0,253.0" stroke="black" stroke-width="1" fill="none" />
<polyline points="151.0,160.0,148.0,163.0,140.0,163.0,134.0,164.0,126.0,164.0,120.0,163.0,123.0,160.0,124.0,152.0,123.0,144.0,132.0,140.0,140.0,134.0,130.0,126.0,129.0,118.0,131.0,109.0,124.0,118.0,126.0,121.0,123.0,120.0,125.0,112.0,126.0,104.0,126.0,96.0,131.0,89.0,131.0,81.0,130.0,73.0,130.0,65.0,129.0,57.0,129.0,49.0,132.0,49.0,125.0,42.0,125.0,44.0,123.0,47.0,131.0,48.0" stroke="black" stroke-width="1" fill="none" />
<polyline points="139.0,148.0,135.0,151.0,133.0,153.0,135.0,160.0,141.0,154.0,139.0,160.0" stroke="black" stroke-width="1" fill="none" />
</svg>