<svg xmlns="http://www.w3.org/2000/svg" version="1.1" xmlns:xlink="http://www.w3.org/1999/xlink" width="233" height="224">
<polyline points="127.0,39.0,118.0,47.0,114.0,55.0,109.0,63.0,104.0,71.0,100.0,79.0,95.0,87.0,90.0,95.0,86.0,103.0,81.0,111.0,76.0,119.0,72.0,127.0,67.0,135.0,62.0,143.0,58.0,151.0,53.0,159.0,48.0,167.0,44.0,175.0,39.0,183.0,34.0,191.0,30.0,199.0,25.0,207.0,22.0,215.0,26.0,223.0,30.0,224.0,38.0,224.0,46.0,224.0,54.0,224.0,62.0,224.0,70.0,224.0,78.0,224.0,86.0,224.0,94.0,224.0,102.0,224.0,110.0,224.0,118.0,224.0,126.0,224.0,134.0,224.0,142.0,224.0,150.0,224.0,158.0,224.0,166.0,224.0,174.0,224.0,182.0,224.0,190.0,224.0,198.0,224.0,206.0,224.0,214.0,224.0,222.0,224.0,230.0,222.0" stroke="black" stroke-width="1" fill="none" />
<polyline points="233.0,216.0,230.0,208.0,225.0,200.0,221.0,192.0,216.0,184.0,211.0,176.0,207.0,168.0,202.0,160.0,197.0,152.0,193.0,144.0,188.0,136.0,183.0,128.0,179.0,120.0,174.0,112.0,169.0,104.0,165.0,96.0,160.0,88.0,155.0,80.0,151.0,72.0,146.0,64.0,141.0,56.0,137.0,48.0,129.0,40.0" stroke="black" stroke-width="1" fill="none" />
<polyline points="126.0,65.0,121.0,73.0,117.0,81.0,112.0,89.0,107.0,97.0,103.0,105.0,98.0,113.0,93.0,121.0,89.0,129.0,84.0,137.0,79.0,145.0,75.0,153.0,70.0,161.0,66.0,169.0,61.0,177.0,56.0,185.0,51.0,193.0,47.0,201.0,44.0,205.0,52.0,192.0,60.0,178.0,68.0,164.0,76.0,151.0,84.0,137.0,92.0,123.0,100.0,109.0,108.0,96.0,116.0,82.0,124.0,68.0,132.0,70.0,140.0,84.0,148.0,97.0,156.0,111.0,164.0,125.0,172.0,139.0,180.0,152.0,188.0,166.0,196.0,180.0,204.0,193.0" stroke="black" stroke-width="1" fill="none" />
<polyline points="208.0,202.0,204.0,194.0,199.0,186.0,194.0,178.0,189.0,170.0,185.0,162.0,180.0,154.0,176.0,146.0,171.0,138.0,166.0,130.0,162.0,122.0,157.0,114.0,152.0,106.0,148.0,98.0,143.0,90.0,138.0,82.0,134.0,74.0,129.0,66.0" stroke="black" stroke-width="1" fill="none" />
<polyline points="205.0,208.0,197.0,208.0,189.0,208.0,181.0,208.0,173.0,208.0,165.0,208.0,157.0,208.0,149.0,208.0,141.0,208.0,133.0,208.0,125.0,208.0,117.0,208.0,109.0,208.0,101.0,208.0,93.0,208.0,85.0,208.0,77.0,208.0,69.0,208.0,61.0,208.0,53.0,208.0,45.0,207.0" stroke="black" stroke-width="1" fill="none" />
<polyline points="22.0,212.0,30.0,198.0,38.0,184.0,46.0,170.0,54.0,157.0,62.0,143.0,70.0,129.0,78.0,116.0,86.0,102.0,94.0,88.0,102.0,74.0,110.0,61.0,118.0,47.0,126.0,40.0,134.0,42.0,142.0,56.0,150.0,69.0,158.0,83.0,166.0,97.0,174.0,110.0,182.0,124.0,190.0,138.0,198.0,152.0,206.0,165.0,214.0,179.0,222.0,193.0,230.0,206.0" stroke="black" stroke-width="1" fill="none" />
</svg>