<svg xmlns="http://www.w3.org/2000/svg" width="12.00cm" height="10.77cm" viewBox="-6.000 -20.384 12.000 10.768">
<rect x="-6.000" y="-20.384" width="12.000" height="10.768" fill="white" stroke="#ccc" stroke-width="0.02"/>
<polyline points="-0.024,-19.384 -0.450,-19.005 -0.640,-18.626 -0.877,-18.246 -1.114,-17.867 -1.303,-17.488 -1.540,-17.109 -1.777,-16.730 -1.967,-16.351 -2.204,-15.972 -2.441,-15.592 -2.630,-15.213 -2.867,-14.834 -3.104,-14.455 -3.294,-14.076 -3.531,-13.697 -3.768,-13.318 -3.957,-12.938 -4.194,-12.559 -4.431,-12.180 -4.621,-11.801 -4.858,-11.422 -5.000,-11.043 -4.810,-10.664 -4.621,-10.616 -4.242,-10.616 -3.863,-10.616 -3.483,-10.616 -3.104,-10.616 -2.725,-10.616 -2.346,-10.616 -1.967,-10.616 -1.588,-10.616 -1.209,-10.616 -0.829,-10.616 -0.450,-10.616 -0.071,-10.616 0.308,-10.616 0.687,-10.616 1.066,-10.616 1.445,-10.616 1.825,-10.616 2.204,-10.616 2.583,-10.616 2.962,-10.616 3.341,-10.616 3.720,-10.616 4.100,-10.616 4.479,-10.616 4.858,-10.711" stroke="#e41a1c" stroke-width="0.04" fill="none" opacity="0.8"/>
<circle cx="-0.024" cy="-19.384" r="0.08" fill="#e41a1c"/>
<polyline points="5.000,-10.995 4.858,-11.374 4.621,-11.754 4.431,-12.133 4.194,-12.512 3.957,-12.891 3.768,-13.270 3.531,-13.649 3.294,-14.028 3.104,-14.408 2.867,-14.787 2.630,-15.166 2.441,-15.545 2.204,-15.924 1.967,-16.303 1.777,-16.682 1.540,-17.062 1.303,-17.441 1.114,-17.820 0.877,-18.199 0.640,-18.578 0.450,-18.957 0.071,-19.336" stroke="#377eb8" stroke-width="0.04" fill="none" opacity="0.8"/>
<circle cx="5.000" cy="-10.995" r="0.08" fill="#377eb8"/>
<polyline points="-0.071,-18.152 -0.308,-17.773 -0.498,-17.393 -0.735,-17.014 -0.972,-16.635 -1.161,-16.256 -1.398,-15.877 -1.635,-15.498 -1.825,-15.118 -2.062,-14.739 -2.299,-14.360 -2.488,-13.981 -2.725,-13.602 -2.915,-13.223 -3.152,-12.844 -3.389,-12.464 -3.626,-12.085 -3.815,-11.706 -3.957,-11.517 -3.578,-12.133 -3.199,-12.796 -2.820,-13.460 -2.441,-14.076 -2.062,-14.739 -1.682,-15.403 -1.303,-16.066 -0.924,-16.682 -0.545,-17.346 -0.166,-18.009 0.213,-17.915 0.592,-17.251 0.972,-16.635 1.351,-15.972 1.730,-15.308 2.109,-14.645 2.488,-14.028 2.867,-13.365 3.246,-12.701 3.626,-12.085" stroke="#4daf4a" stroke-width="0.04" fill="none" opacity="0.8"/>
<circle cx="-0.071" cy="-18.152" r="0.08" fill="#4daf4a"/>
<polyline points="3.815,-11.659 3.626,-12.038 3.389,-12.417 3.152,-12.796 2.915,-13.175 2.725,-13.555 2.488,-13.934 2.299,-14.313 2.062,-14.692 1.825,-15.071 1.635,-15.450 1.398,-15.829 1.161,-16.209 0.972,-16.588 0.735,-16.967 0.498,-17.346 0.308,-17.725 0.071,-18.104" stroke="#984ea3" stroke-width="0.04" fill="none" opacity="0.8"/>
<circle cx="3.815" cy="-11.659" r="0.08" fill="#984ea3"/>
<polyline points="3.673,-11.374 3.294,-11.374 2.915,-11.374 2.536,-11.374 2.156,-11.374 1.777,-11.374 1.398,-11.374 1.019,-11.374 0.640,-11.374 0.261,-11.374 -0.118,-11.374 -0.498,-11.374 -0.877,-11.374 -1.256,-11.374 -1.635,-11.374 -2.014,-11.374 -2.393,-11.374 -2.773,-11.374 -3.152,-11.374 -3.531,-11.374 -3.910,-11.422" stroke="#ff7f00" stroke-width="0.04" fill="none" opacity="0.8"/>
<circle cx="3.673" cy="-11.374" r="0.08" fill="#ff7f00"/>
<polyline points="-5.000,-11.185 -4.621,-11.848 -4.242,-12.512 -3.863,-13.175 -3.483,-13.791 -3.104,-14.455 -2.725,-15.118 -2.346,-15.735 -1.967,-16.398 -1.588,-17.062 -1.209,-17.725 -0.829,-18.341 -0.450,-19.005 -0.071,-19.336 0.308,-19.242 0.687,-18.578 1.066,-17.962 1.445,-17.299 1.825,-16.635 2.204,-16.019 2.583,-15.355 2.962,-14.692 3.341,-14.028 3.720,-13.412 4.100,-12.749 4.479,-12.085 4.858,-11.469" stroke="#a65628" stroke-width="0.04" fill="none" opacity="0.8"/>
<circle cx="-5.000" cy="-11.185" r="0.08" fill="#a65628"/>
</svg>